<?xml version="1.0" encoding="utf-8"?>
<!-- Generator: Adobe Illustrator 16.1.0, SVG Export Plug-In . SVG Version: 6.00 Build 0)  -->
<!DOCTYPE svg PUBLIC "-//W3C//DTD SVG 1.1//EN" "http://www.w3.org/Graphics/SVG/1.1/DTD/svg11.dtd">
<svg version="1.1" id="Layer_1" xmlns="http://www.w3.org/2000/svg" xmlns:xlink="http://www.w3.org/1999/xlink" x="0px" y="0px"
	 width="200px" height="207px" viewBox="0 0 200 207" enable-background="new 0 0 200 207" xml:space="preserve">
<radialGradient id="SVGID_1_" cx="58.6846" cy="61.8037" r="160.7232" gradientUnits="userSpaceOnUse">
	<stop  offset="0" style="stop-color:#FFFFFF"/>
	<stop  offset="1" style="stop-color:#000000"/>
</radialGradient>
<path fill-rule="evenodd" clip-rule="evenodd" fill="url(#SVGID_1_)" d="M100.399,33.034c-7.302,0-14.353,1.105-21.001,3.144
	c9.341,5.681,26.217,11.363,45.715,17.045c-20.24-2.749-39.035-6.833-55.719-13.138c-2.429,1.167-4.778,2.473-7.048,3.896
	c8.889,6.043,26.662,12.087,47.402,18.131c-19.879-2.699-38.35-6.7-54.809-12.813c-1.865,1.527-3.649,3.149-5.352,4.852
	c8.817,6.089,26.712,12.181,47.615,18.273c-19.181-2.604-37.04-6.433-53.058-12.188c-1.523,1.911-2.939,3.909-4.266,5.97
	c8.795,6.104,26.729,12.211,47.681,18.317C69,82.003,51.674,78.338,36.058,72.888c-1.039,2.071-1.974,4.202-2.812,6.379
	c8.831,6.082,26.704,12.164,47.577,18.247c-17.931-2.435-34.719-5.923-49.917-11.068c-0.602,2.248-1.096,4.54-1.479,6.867
	c8.911,6.027,26.646,12.057,47.335,18.086c-17.247-2.342-33.429-5.668-48.164-10.496c-0.075,1.343-0.122,2.693-0.122,4.055
	c0,0.862,0.035,1.716,0.065,2.57c8.854,6.066,26.688,12.134,47.509,18.202c-16.707-2.269-32.407-5.471-46.77-10.056
	c0.352,2.337,0.826,4.634,1.398,6.893c8.759,6.128,26.754,12.257,47.786,18.387c-15.981-2.17-31.043-5.192-44.894-9.463
	c1.006,2.52,2.151,4.969,3.425,7.34c8.944,6.005,26.621,12.012,47.232,18.018c-14.473-1.965-28.188-4.632-40.938-8.285
	c1.842,2.405,3.836,4.688,5.96,6.842c8.95,6.001,26.619,12.004,47.217,18.007c-10.832-1.471-21.233-3.341-31.136-5.712
	c10.383,5.84,22.345,9.182,35.068,9.182c39.615,0,71.925-32.31,71.925-71.924S140.015,33.034,100.399,33.034z"/>
<linearGradient id="SVGID_2_" gradientUnits="userSpaceOnUse" x1="158.9395" y1="115.1387" x2="78.5069" y2="100.9562">
	<stop  offset="0" style="stop-color:#000000"/>
	<stop  offset="0.49" style="stop-color:#F58220"/>
	<stop  offset="1" style="stop-color:#FFFFFF"/>
</linearGradient>
<path fill-rule="evenodd" clip-rule="evenodd" fill="url(#SVGID_2_)" d="M161.045,87.965c-2.967,14.154-10.92,26.057-23.557,26.036
	c18.734-26.048,15.375-45.45-8.059-66.95c12.508,23.736-16.38,48.354-34.716,57.651c6.079-7.384,8.407-15.988,2.48-27.276
	c-2.746,7.427-8.111,13.897-17.249,19.831c0.294,0.086,0.582,0.172,0.877,0.258c-0.35-0.048-0.69-0.102-1.039-0.15
	c-2.234,1.442-4.687,2.854-7.386,4.238c-1.403,2.394-2.521,4.904-3.374,7.496c1.284,0.39,2.582,0.78,3.896,1.17
	c1.269,0.377,2.55,0.754,3.843,1.131c-2.571-0.349-5.11-0.728-7.634-1.123c-0.149-0.023-0.304-0.043-0.454-0.066
	c-1.227,4.129-1.774,8.448-1.675,12.816c0.013,0.004,0.025,0.008,0.038,0.012c1.419,0.435,2.855,0.869,4.31,1.304
	c0.059,0.018,0.115,0.035,0.174,0.052c1.491,0.446,3.001,0.892,4.529,1.337c-1.66-0.226-3.305-0.465-4.942-0.712
	c-1.193-0.178-2.377-0.364-3.559-0.552c-0.164-0.026-0.33-0.051-0.494-0.077c0.251,4.7,1.259,9.44,2.971,14.048
	c0.023,0.008,0.046,0.015,0.069,0.021c1.305,0.398,2.624,0.796,3.958,1.193c0.059,0.018,0.115,0.035,0.174,0.053
	c1.396,0.416,2.81,0.832,4.238,1.249c-2.443-0.332-4.857-0.691-7.257-1.064c-0.215-0.033-0.436-0.062-0.649-0.095
	c2.294,5.671,5.671,11.113,10.084,15.999c1.186,0.352,2.379,0.703,3.586,1.055c-1.002-0.136-1.991-0.284-2.985-0.427
	c1.309,1.405,2.689,2.771,4.172,4.072c-1.822-37.231,42.555-6.148,15.849,7.358C139.702,169.548,174.371,124.915,161.045,87.965z"/>
<linearGradient id="SVGID_3_" gradientUnits="userSpaceOnUse" x1="84.0947" y1="156.875" x2="81.5061" y2="156.4186">
	<stop  offset="0" style="stop-color:#000000"/>
	<stop  offset="0.49" style="stop-color:#F58220"/>
	<stop  offset="1" style="stop-color:#FFFFFF"/>
</linearGradient>
<path fill-rule="evenodd" clip-rule="evenodd" fill="url(#SVGID_3_)" d="M84.229,156.849c-1.007-0.137-1.994-0.292-2.994-0.436
	c0.003,0.003,0.006,0.006,0.009,0.009C82.237,156.564,83.227,156.713,84.229,156.849z"/>
<linearGradient id="SVGID_4_" gradientUnits="userSpaceOnUse" x1="84.1104" y1="156.6172" x2="80.9308" y2="156.0565">
	<stop  offset="0" style="stop-color:#000000"/>
	<stop  offset="0.49" style="stop-color:#F58220"/>
	<stop  offset="1" style="stop-color:#FFFFFF"/>
</linearGradient>
<path fill-rule="evenodd" clip-rule="evenodd" fill="url(#SVGID_4_)" d="M80.643,155.794L80.643,155.794
	c1.186,0.352,2.38,0.703,3.586,1.055C83.021,156.497,81.828,156.146,80.643,155.794z"/>
<linearGradient id="SVGID_5_" gradientUnits="userSpaceOnUse" x1="84.1025" y1="156.6621" x2="80.923" y2="156.1015">
	<stop  offset="0" style="stop-color:#000000"/>
	<stop  offset="0.49" style="stop-color:#F58220"/>
	<stop  offset="1" style="stop-color:#FFFFFF"/>
</linearGradient>
<path fill-rule="evenodd" clip-rule="evenodd" fill="url(#SVGID_5_)" d="M84.229,156.849c-1.206-0.352-2.4-0.703-3.586-1.055
	c0.19,0.21,0.398,0.41,0.592,0.619C82.234,156.557,83.222,156.712,84.229,156.849z"/>
<linearGradient id="SVGID_6_" gradientUnits="userSpaceOnUse" x1="74.2207" y1="139.6934" x2="74.0661" y2="139.6661">
	<stop  offset="0" style="stop-color:#000000"/>
	<stop  offset="0.49" style="stop-color:#F58220"/>
	<stop  offset="1" style="stop-color:#FFFFFF"/>
</linearGradient>
<path fill-rule="evenodd" clip-rule="evenodd" fill="url(#SVGID_6_)" d="M74.053,139.652c0.059,0.018,0.115,0.035,0.174,0.053
	C74.168,139.688,74.111,139.67,74.053,139.652z"/>
<linearGradient id="SVGID_7_" gradientUnits="userSpaceOnUse" x1="78.1416" y1="141.0049" x2="71.867" y2="139.8985">
	<stop  offset="0" style="stop-color:#000000"/>
	<stop  offset="0.49" style="stop-color:#F58220"/>
	<stop  offset="1" style="stop-color:#FFFFFF"/>
</linearGradient>
<path fill-rule="evenodd" clip-rule="evenodd" fill="url(#SVGID_7_)" d="M71.208,139.89c2.399,0.373,4.813,0.732,7.257,1.064
	C76.021,140.622,73.607,140.263,71.208,139.89z"/>
<linearGradient id="SVGID_8_" gradientUnits="userSpaceOnUse" x1="70.0938" y1="138.4551" x2="70.0319" y2="138.4442">
	<stop  offset="0" style="stop-color:#000000"/>
	<stop  offset="0.49" style="stop-color:#F58220"/>
	<stop  offset="1" style="stop-color:#FFFFFF"/>
</linearGradient>
<path fill-rule="evenodd" clip-rule="evenodd" fill="url(#SVGID_8_)" d="M70.025,138.438L70.025,138.438
	c0.022,0.008,0.047,0.015,0.069,0.021C70.071,138.452,70.049,138.445,70.025,138.438z"/>
<linearGradient id="SVGID_9_" gradientUnits="userSpaceOnUse" x1="78.3252" y1="140.6787" x2="74.5673" y2="140.0161">
	<stop  offset="0" style="stop-color:#000000"/>
	<stop  offset="0.49" style="stop-color:#F58220"/>
	<stop  offset="1" style="stop-color:#FFFFFF"/>
</linearGradient>
<path fill-rule="evenodd" clip-rule="evenodd" fill="url(#SVGID_9_)" d="M74.227,139.705c1.398,0.416,2.81,0.833,4.238,1.249
	C77.036,140.537,75.623,140.121,74.227,139.705z"/>
<linearGradient id="SVGID_10_" gradientUnits="userSpaceOnUse" x1="73.9248" y1="139.3818" x2="70.4118" y2="138.7624">
	<stop  offset="0" style="stop-color:#000000"/>
	<stop  offset="0.49" style="stop-color:#F58220"/>
	<stop  offset="1" style="stop-color:#FFFFFF"/>
</linearGradient>
<path fill-rule="evenodd" clip-rule="evenodd" fill="url(#SVGID_10_)" d="M70.095,138.459c1.304,0.398,2.623,0.796,3.958,1.193
	C72.719,139.255,71.399,138.857,70.095,138.459z"/>
<linearGradient id="SVGID_11_" gradientUnits="userSpaceOnUse" x1="71.1787" y1="139.8945" x2="70.612" y2="139.7946">
	<stop  offset="0" style="stop-color:#000000"/>
	<stop  offset="0.49" style="stop-color:#F58220"/>
	<stop  offset="1" style="stop-color:#FFFFFF"/>
</linearGradient>
<path fill-rule="evenodd" clip-rule="evenodd" fill="url(#SVGID_11_)" d="M71.208,139.89c-0.219-0.033-0.435-0.07-0.653-0.104
	c0.002,0.004,0.003,0.007,0.004,0.01C70.772,139.828,70.993,139.856,71.208,139.89z"/>
<linearGradient id="SVGID_12_" gradientUnits="userSpaceOnUse" x1="78.1699" y1="140.502" x2="70.6825" y2="139.1817">
	<stop  offset="0" style="stop-color:#000000"/>
	<stop  offset="0.49" style="stop-color:#F58220"/>
	<stop  offset="1" style="stop-color:#FFFFFF"/>
</linearGradient>
<path fill-rule="evenodd" clip-rule="evenodd" fill="url(#SVGID_12_)" d="M71.208,139.89c2.399,0.373,4.813,0.732,7.257,1.064
	c-1.429-0.416-2.84-0.833-4.238-1.249c-0.059-0.018-0.115-0.035-0.174-0.053c-1.335-0.397-2.654-0.795-3.958-1.193
	c-0.022-0.007-0.047-0.014-0.069-0.021c0.168,0.451,0.348,0.899,0.529,1.347C70.773,139.819,70.989,139.856,71.208,139.89z"/>
<linearGradient id="SVGID_13_" gradientUnits="userSpaceOnUse" x1="71.5156" y1="124.3828" x2="71.361" y2="124.3555">
	<stop  offset="0" style="stop-color:#000000"/>
	<stop  offset="0.49" style="stop-color:#F58220"/>
	<stop  offset="1" style="stop-color:#FFFFFF"/>
</linearGradient>
<path fill-rule="evenodd" clip-rule="evenodd" fill="url(#SVGID_13_)" d="M71.347,124.342c0.058,0.018,0.115,0.035,0.174,0.052
	C71.462,124.377,71.405,124.359,71.347,124.342z"/>
<linearGradient id="SVGID_14_" gradientUnits="userSpaceOnUse" x1="70.9512" y1="125.0293" x2="67.8703" y2="124.4861">
	<stop  offset="0" style="stop-color:#000000"/>
	<stop  offset="0.49" style="stop-color:#F58220"/>
	<stop  offset="1" style="stop-color:#FFFFFF"/>
</linearGradient>
<path fill-rule="evenodd" clip-rule="evenodd" fill="url(#SVGID_14_)" d="M67.549,124.467c1.182,0.188,2.365,0.374,3.559,0.552
	C69.916,124.839,68.73,124.654,67.549,124.467z"/>
<linearGradient id="SVGID_15_" gradientUnits="userSpaceOnUse" x1="67.0361" y1="123.0361" x2="67.0019" y2="123.0301">
	<stop  offset="0" style="stop-color:#000000"/>
	<stop  offset="0.49" style="stop-color:#F58220"/>
	<stop  offset="1" style="stop-color:#FFFFFF"/>
</linearGradient>
<path fill-rule="evenodd" clip-rule="evenodd" fill="url(#SVGID_15_)" d="M67.037,123.038c-0.013-0.004-0.025-0.008-0.038-0.012l0,0
	C67.012,123.03,67.024,123.034,67.037,123.038z"/>
<linearGradient id="SVGID_16_" gradientUnits="userSpaceOnUse" x1="75.9014" y1="125.4355" x2="71.8852" y2="124.7274">
	<stop  offset="0" style="stop-color:#000000"/>
	<stop  offset="0.49" style="stop-color:#F58220"/>
	<stop  offset="1" style="stop-color:#FFFFFF"/>
</linearGradient>
<path fill-rule="evenodd" clip-rule="evenodd" fill="url(#SVGID_16_)" d="M71.521,124.394c1.494,0.446,3.001,0.892,4.529,1.337
	C74.521,125.285,73.012,124.84,71.521,124.394z"/>
<linearGradient id="SVGID_17_" gradientUnits="userSpaceOnUse" x1="67.5273" y1="124.4688" x2="67.0986" y2="124.3931">
	<stop  offset="0" style="stop-color:#000000"/>
	<stop  offset="0.49" style="stop-color:#F58220"/>
	<stop  offset="1" style="stop-color:#FFFFFF"/>
</linearGradient>
<path fill-rule="evenodd" clip-rule="evenodd" fill="url(#SVGID_17_)" d="M67.055,124.387c0,0.001,0,0.002,0,0.003
	c0.164,0.026,0.33,0.051,0.494,0.077C67.384,124.44,67.22,124.413,67.055,124.387z"/>
<linearGradient id="SVGID_18_" gradientUnits="userSpaceOnUse" x1="75.8281" y1="125.7715" x2="71.5562" y2="125.0182">
	<stop  offset="0" style="stop-color:#000000"/>
	<stop  offset="0.49" style="stop-color:#F58220"/>
	<stop  offset="1" style="stop-color:#FFFFFF"/>
</linearGradient>
<path fill-rule="evenodd" clip-rule="evenodd" fill="url(#SVGID_18_)" d="M76.05,125.73c-1.66-0.226-3.303-0.468-4.942-0.712
	C72.745,125.266,74.39,125.505,76.05,125.73z"/>
<linearGradient id="SVGID_19_" gradientUnits="userSpaceOnUse" x1="71.208" y1="124.0449" x2="67.3824" y2="123.3704">
	<stop  offset="0" style="stop-color:#000000"/>
	<stop  offset="0.49" style="stop-color:#F58220"/>
	<stop  offset="1" style="stop-color:#FFFFFF"/>
</linearGradient>
<path fill-rule="evenodd" clip-rule="evenodd" fill="url(#SVGID_19_)" d="M67.037,123.038c1.418,0.435,2.854,0.869,4.31,1.304
	C69.893,123.907,68.456,123.473,67.037,123.038z"/>
<linearGradient id="SVGID_20_" gradientUnits="userSpaceOnUse" x1="75.7344" y1="125.2422" x2="67.7037" y2="123.8262">
	<stop  offset="0" style="stop-color:#000000"/>
	<stop  offset="0.49" style="stop-color:#F58220"/>
	<stop  offset="1" style="stop-color:#FFFFFF"/>
</linearGradient>
<path fill-rule="evenodd" clip-rule="evenodd" fill="url(#SVGID_20_)" d="M67.549,124.467c1.182,0.188,2.367,0.372,3.559,0.552
	c1.64,0.244,3.282,0.486,4.942,0.712c-1.528-0.445-3.035-0.891-4.529-1.337c-0.059-0.017-0.116-0.034-0.174-0.052
	c-1.456-0.435-2.892-0.869-4.31-1.304c-0.013-0.004-0.025-0.008-0.038-0.012c0.011,0.453,0.031,0.906,0.056,1.36
	C67.22,124.413,67.384,124.44,67.549,124.467z"/>
<linearGradient id="SVGID_21_" gradientUnits="userSpaceOnUse" x1="76.4219" y1="111.4512" x2="69.8213" y2="110.2873">
	<stop  offset="0" style="stop-color:#000000"/>
	<stop  offset="0.49" style="stop-color:#F58220"/>
	<stop  offset="1" style="stop-color:#FFFFFF"/>
</linearGradient>
<path fill-rule="evenodd" clip-rule="evenodd" fill="url(#SVGID_21_)" d="M69.128,110.276c2.523,0.396,5.062,0.774,7.634,1.123
	C74.19,111.05,71.65,110.672,69.128,110.276z"/>
<linearGradient id="SVGID_22_" gradientUnits="userSpaceOnUse" x1="72.792" y1="110.0049" x2="69.335" y2="109.3953">
	<stop  offset="0" style="stop-color:#000000"/>
	<stop  offset="0.49" style="stop-color:#F58220"/>
	<stop  offset="1" style="stop-color:#FFFFFF"/>
</linearGradient>
<path fill-rule="evenodd" clip-rule="evenodd" fill="url(#SVGID_22_)" d="M69.023,109.099L69.023,109.099
	c1.283,0.391,2.583,0.78,3.896,1.17C71.605,109.879,70.308,109.488,69.023,109.099z"/>
<linearGradient id="SVGID_23_" gradientUnits="userSpaceOnUse" x1="76.6348" y1="111.1514" x2="73.2279" y2="110.5506">
	<stop  offset="0" style="stop-color:#000000"/>
	<stop  offset="0.49" style="stop-color:#F58220"/>
	<stop  offset="1" style="stop-color:#FFFFFF"/>
</linearGradient>
<path fill-rule="evenodd" clip-rule="evenodd" fill="url(#SVGID_23_)" d="M72.919,110.269c1.269,0.377,2.55,0.754,3.843,1.131
	C75.469,111.022,74.188,110.646,72.919,110.269z"/>
<linearGradient id="SVGID_24_" gradientUnits="userSpaceOnUse" x1="69.1084" y1="110.2803" x2="68.7156" y2="110.211">
	<stop  offset="0" style="stop-color:#000000"/>
	<stop  offset="0.49" style="stop-color:#F58220"/>
	<stop  offset="1" style="stop-color:#FFFFFF"/>
</linearGradient>
<path fill-rule="evenodd" clip-rule="evenodd" fill="url(#SVGID_24_)" d="M68.676,110.203c-0.001,0.003-0.001,0.005-0.002,0.007
	c0.15,0.023,0.305,0.043,0.454,0.066C68.977,110.253,68.827,110.228,68.676,110.203z"/>
<linearGradient id="SVGID_25_" gradientUnits="userSpaceOnUse" x1="76.4824" y1="110.998" x2="69.4898" y2="109.7651">
	<stop  offset="0" style="stop-color:#000000"/>
	<stop  offset="0.49" style="stop-color:#F58220"/>
	<stop  offset="1" style="stop-color:#FFFFFF"/>
</linearGradient>
<path fill-rule="evenodd" clip-rule="evenodd" fill="url(#SVGID_25_)" d="M76.762,111.399c-1.293-0.377-2.574-0.754-3.843-1.131
	c-1.312-0.39-2.612-0.779-3.896-1.169c-0.12,0.366-0.238,0.734-0.348,1.104c0.151,0.024,0.301,0.05,0.452,0.073
	C71.65,110.672,74.19,111.05,76.762,111.399z"/>
<linearGradient id="SVGID_26_" gradientUnits="userSpaceOnUse" x1="80.7764" y1="97.5234" x2="79.8787" y2="97.3652">
	<stop  offset="0" style="stop-color:#000000"/>
	<stop  offset="0.49" style="stop-color:#F58220"/>
	<stop  offset="1" style="stop-color:#FFFFFF"/>
</linearGradient>
<path fill-rule="evenodd" clip-rule="evenodd" fill="url(#SVGID_26_)" d="M79.785,97.363c-0.001,0-0.001,0.001-0.002,0.001
	c0.349,0.049,0.689,0.103,1.039,0.15C80.474,97.467,80.133,97.412,79.785,97.363z"/>
<linearGradient id="SVGID_27_" gradientUnits="userSpaceOnUse" x1="80.7939" y1="97.459" x2="80.0166" y2="97.3219">
	<stop  offset="0" style="stop-color:#000000"/>
	<stop  offset="0.49" style="stop-color:#F58220"/>
	<stop  offset="1" style="stop-color:#FFFFFF"/>
</linearGradient>
<path fill-rule="evenodd" clip-rule="evenodd" fill="url(#SVGID_27_)" d="M80.822,97.515c-0.295-0.086-0.583-0.172-0.877-0.258l0,0
	C80.239,97.343,80.527,97.429,80.822,97.515z"/>
<linearGradient id="SVGID_28_" gradientUnits="userSpaceOnUse" x1="80.7852" y1="97.4727" x2="79.8891" y2="97.3147">
	<stop  offset="0" style="stop-color:#000000"/>
	<stop  offset="0.49" style="stop-color:#F58220"/>
	<stop  offset="1" style="stop-color:#FFFFFF"/>
</linearGradient>
<path fill-rule="evenodd" clip-rule="evenodd" fill="url(#SVGID_28_)" d="M79.785,97.363c0.348,0.049,0.688,0.104,1.037,0.151
	c-0.295-0.086-0.583-0.172-0.877-0.258C79.891,97.292,79.84,97.328,79.785,97.363z"/>
<linearGradient id="SVGID_29_" gradientUnits="userSpaceOnUse" x1="113.1162" y1="48.7432" x2="97.0926" y2="231.894">
	<stop  offset="0" style="stop-color:#FCBC86"/>
	<stop  offset="1" style="stop-color:#FFFFFF"/>
</linearGradient>
<path fill-rule="evenodd" clip-rule="evenodd" fill="url(#SVGID_29_)" d="M121.783,102.413
	c4.491,13.524-48.255,21.278-36.348,58.888c-2.329-32.645,39.79-12.129,16.288,6.683
	C124.756,157.684,132.317,136.729,121.783,102.413z"/>
<g>
	<path d="M22.878,69.89l-8.214-4.369l0.459-0.862l8.762-3.224c0.198-0.075,0.43-0.144,0.688-0.208
		c0.262-0.066,0.541-0.123,0.842-0.177c-0.286-0.099-0.577-0.213-0.878-0.346c-0.298-0.132-0.7-0.333-1.208-0.604l-4.51-2.397
		l0.67-1.26l8.215,4.369l-0.408,0.77l-9.068,3.272c-0.042,0.018-0.108,0.042-0.198,0.075c-0.445,0.162-0.836,0.249-1.169,0.268
		c0.267,0.099,0.543,0.216,0.835,0.351c0.291,0.136,0.628,0.304,1.01,0.508l4.844,2.575L22.878,69.89z"/>
	<path d="M29.405,58.258l-3.585-8.064l0.775-1.07l8.84,0.833l-0.92,1.268l-2.031-0.246l-3.104,4.272l0.871,1.839L29.405,58.258
		L29.405,58.258z M28.849,54.112l2.387-3.281l-4.138-0.493L28.849,54.112z"/>
	<polygon points="34.188,41.774 38.867,46.293 37.872,47.324 33.194,42.805 30.688,45.401 29.871,44.614 35.893,38.378 
		36.71,39.166 	"/>
	<rect x="40.144" y="35.265" transform="matrix(0.732 -0.6813 0.6813 0.732 -15.672 38.3077)" width="1.433" height="7.622"/>
	<path d="M46.767,37.249l5.228-3.66l-3.067-4.383l-5.229,3.66L46.767,37.249L46.767,37.249z M42.905,34.247
		c-0.399-0.571-0.565-1.036-0.496-1.397c0.069-0.36,0.4-0.745,0.992-1.16l4.521-3.167c0.589-0.412,1.067-0.592,1.428-0.532
		c0.363,0.057,0.745,0.37,1.145,0.944l2.308,3.293c0.399,0.571,0.565,1.037,0.496,1.392c-0.069,0.357-0.399,0.745-0.998,1.16
		l-4.519,3.167c-0.602,0.42-1.079,0.601-1.434,0.547c-0.354-0.057-0.733-0.373-1.136-0.949L42.905,34.247z"/>
	<path d="M54.939,25.738c0.133,0.183,0.258,0.373,0.378,0.568s0.232,0.394,0.334,0.598l2.154,4.228l-1.184,0.601l-3.468-6.806
		l0.979-0.499l7.26,1.902c0.211,0.051,0.421,0.117,0.631,0.201c0.211,0.084,0.43,0.189,0.661,0.315
		c-0.141-0.183-0.273-0.375-0.399-0.577c-0.123-0.198-0.243-0.412-0.357-0.637l-2.095-4.107l1.184-0.604l3.468,6.806l-0.877,0.448
		l-7.396-1.911c-0.261-0.078-0.495-0.159-0.699-0.241C55.309,25.939,55.12,25.843,54.939,25.738z"/>
	<path d="M66.463,26.429l1.842-8.632l1.256-0.406l6.661,5.865l-1.489,0.484l-1.5-1.392l-5.021,1.632l-0.376,2.001L66.463,26.429
		L66.463,26.429z M68.449,22.745l3.857-1.253l-3.056-2.828L68.449,22.745z"/>
	<polygon points="78.458,22.583 76.739,15.14 78.146,14.815 79.605,21.135 85.393,19.8 85.651,20.924 	"/>
	<path d="M102.907,11.525l-6.451,0.114l0.12,6.74l6.451-0.114l-0.042-2.332l1.562,0.3l0.019,1.1
		c0.015,0.854-0.123,1.436-0.418,1.749c-0.294,0.309-0.862,0.472-1.707,0.486l-5.21,0.09c-0.844,0.015-1.421-0.129-1.73-0.433
		c-0.312-0.3-0.475-0.877-0.49-1.728l-0.084-4.9c-0.015-0.851,0.126-1.434,0.427-1.746c0.301-0.312,0.871-0.478,1.716-0.493
		l5.21-0.09c0.845-0.015,1.419,0.126,1.722,0.426c0.307,0.301,0.466,0.877,0.481,1.737l0.015,0.88l-1.551,0.316L102.907,11.525z"/>
	<polygon points="108.04,19.954 108.972,12.373 116.606,13.31 116.468,14.437 110.267,13.674 110.026,15.621 113.764,16.081 
		113.626,17.207 109.888,16.748 109.608,19.02 115.879,19.789 115.744,20.897 	"/>
	<path d="M121.23,16.053c-0.023,0.226-0.057,0.451-0.099,0.676c-0.042,0.226-0.094,0.448-0.15,0.67l-1.229,4.583l-1.282-0.346
		l1.977-7.379l1.063,0.286l4.126,6.274c0.12,0.177,0.231,0.369,0.334,0.571c0.099,0.204,0.191,0.429,0.279,0.676
		c0.018-0.231,0.048-0.462,0.09-0.694c0.039-0.234,0.093-0.472,0.159-0.716l1.192-4.453l1.283,0.343l-1.977,7.379l-0.952-0.255
		l-4.216-6.37c-0.145-0.232-0.265-0.448-0.361-0.646C121.372,16.45,121.294,16.252,121.23,16.053z"/>
	<polygon points="135.993,20.485 133.664,26.555 132.324,26.042 134.653,19.972 131.284,18.677 131.693,17.616 139.785,20.723 
		139.376,21.783 	"/>
	<polygon points="138.875,29.067 142.58,22.384 149.305,26.113 148.755,27.105 143.292,24.076 142.339,25.795 145.633,27.622 
		145.083,28.613 141.789,26.787 140.678,28.791 146.203,31.855 145.662,32.832 	"/>
	<path d="M156.287,32.42l-3.203-2.503l-1.518,1.944l3.203,2.503c0.253,0.199,0.457,0.292,0.61,0.276
		c0.153-0.015,0.324-0.144,0.511-0.385l0.565-0.721c0.174-0.222,0.249-0.415,0.231-0.58C156.666,32.79,156.534,32.613,156.287,32.42
		L156.287,32.42z M147.935,34.169l4.702-6.019l4.838,3.78c0.45,0.352,0.703,0.694,0.754,1.031c0.054,0.336-0.078,0.709-0.399,1.121
		l-1.052,1.346c-0.318,0.408-0.646,0.625-0.982,0.652c-0.34,0.024-0.733-0.135-1.181-0.487l-0.797-0.625l0.814,4.432l-1.518-1.187
		l-0.559-4.23l-1.644-1.283l-1.843,2.355L147.935,34.169z"/>
	<polygon points="161.524,45.771 167.291,40.759 172.275,46.495 171.42,47.24 167.381,42.591 165.603,44.136 167.883,46.759 
		167.039,47.492 164.758,44.869 162.472,46.858 	"/>
	<path d="M169.442,53.604l3.747,5.16l4.33-3.146l-3.747-5.159L169.442,53.604L169.442,53.604z M172.375,49.686
		c0.565-0.409,1.027-0.583,1.392-0.52c0.36,0.063,0.754,0.388,1.178,0.974l3.242,4.459c0.424,0.585,0.609,1.061,0.559,1.424
		c-0.051,0.363-0.357,0.751-0.926,1.16l-3.254,2.364c-0.562,0.412-1.024,0.586-1.382,0.523c-0.357-0.066-0.752-0.391-1.178-0.98
		l-3.242-4.462c-0.43-0.595-0.622-1.066-0.571-1.424c0.048-0.354,0.357-0.739,0.929-1.154L172.375,49.686z"/>
	<path d="M182.939,65.47l-1.911-3.591l-2.178,1.157l1.91,3.593c0.15,0.283,0.298,0.451,0.445,0.5
		c0.145,0.051,0.354,0.002,0.622-0.142l0.812-0.43c0.246-0.132,0.396-0.279,0.444-0.436
		C183.132,65.963,183.084,65.747,182.939,65.47L182.939,65.47z M174.589,63.667l6.746-3.588l2.888,5.427
		c0.265,0.502,0.354,0.917,0.268,1.247c-0.087,0.328-0.36,0.616-0.82,0.859l-1.512,0.802c-0.457,0.244-0.844,0.31-1.163,0.195
		c-0.318-0.111-0.612-0.421-0.877-0.922l-0.478-0.893l-1.058,4.378l-0.904-1.701l1.211-4.092l-0.979-1.842l-2.642,1.403
		L174.589,63.667z"/>
	<polygon points="12.294,134.624 20.979,131.291 21.534,132.746 14.059,135.615 16.582,142.188 15.374,142.649 	"/>
	<path d="M16.188,144.017l8.802,0.622l0.58,1.187l-4.883,7.416l-0.688-1.409l1.172-1.677l-2.313-4.748l-2.037-0.093L16.188,144.017
		L16.188,144.017z M20.11,145.471l1.778,3.647l2.377-3.419L20.11,145.471z"/>
	<path d="M28.929,159.5c-0.207,0.145-0.399,0.295-0.58,0.445c-0.18,0.149-0.354,0.309-0.517,0.475
		c0.093-0.246,0.165-0.479,0.22-0.697c0.054-0.22,0.09-0.438,0.114-0.655l0.868-7.451l-0.628-0.901l-6.256,4.38l0.76,1.088
		l3.886-2.719c0.186-0.133,0.369-0.271,0.546-0.415c0.178-0.147,0.346-0.298,0.509-0.453c-0.078,0.191-0.147,0.393-0.202,0.606
		c-0.054,0.213-0.102,0.457-0.141,0.728l-0.862,7.587l0.564,0.809l6.256-4.382l-0.76-1.087L28.929,159.5z"/>
	<path d="M37.531,164.134l-1.907-2.047l-3.912,3.648l1.907,2.046c0.848,0.911,1.604,1.415,2.269,1.512
		c0.668,0.099,1.35-0.181,2.053-0.836c0.688-0.64,1-1.295,0.94-1.965C38.82,165.822,38.373,165.035,37.531,164.134L37.531,164.134z
		 M38.47,163.476c0.495,0.532,0.877,1.013,1.145,1.442c0.268,0.427,0.438,0.829,0.511,1.199c0.117,0.606,0.069,1.21-0.147,1.812
		c-0.214,0.602-0.567,1.133-1.066,1.596c-0.941,0.877-1.908,1.247-2.906,1.108c-0.997-0.135-2.037-0.784-3.122-1.946l-3.001-3.219
		l5.585-5.21L38.47,163.476z"/>
	<path d="M48.253,172.36l-3.302-2.674c-0.56-0.454-1.022-0.661-1.383-0.625s-0.761,0.324-1.202,0.865l-0.454,0.562
		c-0.441,0.547-0.643,0.998-0.598,1.355c0.045,0.354,0.346,0.761,0.907,1.214l3.822,3.095l-1.354,1.671l-4.478-3.624l0.715-0.883
		l-1.198-0.622l-0.133,0.165c-0.444,0.547-0.643,1.001-0.595,1.357c0.045,0.358,0.352,0.767,0.917,1.224l3.611,2.924
		c0.564,0.46,1.024,0.673,1.379,0.64c0.357-0.033,0.754-0.324,1.199-0.871l0.577-0.712c0.441-0.547,0.64-1.001,0.595-1.358
		s-0.349-0.764-0.904-1.214l-3.811-3.083l1.247-1.539l4.165,3.372l-0.632,0.778l1.196,0.606l0.117-0.144
		c0.391-0.481,0.559-0.905,0.505-1.266C49.109,173.211,48.806,172.809,48.253,172.36z"/>
	<path d="M56.786,179.608l-4.471-2.902l-2.915,4.485l4.472,2.903l0.991-1.526l1.063,1.016l-0.49,0.751
		c-0.381,0.586-0.748,0.913-1.105,0.982c-0.354,0.069-0.838-0.093-1.448-0.489l-3.765-2.443c-0.61-0.396-0.956-0.767-1.037-1.111
		c-0.081-0.343,0.072-0.814,0.463-1.416l2.19-3.371c0.388-0.595,0.757-0.929,1.108-0.994c0.353-0.069,0.83,0.093,1.437,0.486
		l3.763,2.443c0.609,0.396,0.955,0.771,1.036,1.13c0.078,0.354-0.072,0.825-0.45,1.412l-0.394,0.604l-1.341-0.586L56.786,179.608z"
		/>
	<path d="M56.011,186.858l7.232-5.054l1.196,0.556l0.871,8.834l-1.418-0.661l-0.147-2.04l-4.786-2.229l-1.641,1.205L56.011,186.858
		L56.011,186.858z M59.974,185.521l3.679,1.716l-0.307-4.152L59.974,185.521z"/>
	<path d="M75.04,187.625l-4.116-1.419l-0.785,2.278l4.117,1.418c0.307,0.105,0.534,0.126,0.69,0.066
		c0.153-0.063,0.274-0.217,0.361-0.466l0.312-0.917c0.087-0.249,0.09-0.444,0.009-0.586
		C75.548,187.856,75.353,187.732,75.04,187.625L75.04,187.625z M67.435,191.903l2.488-7.224l6.097,2.101
		c0.562,0.192,0.929,0.439,1.1,0.739c0.175,0.304,0.175,0.703,0.003,1.202l-0.556,1.613c-0.168,0.489-0.415,0.8-0.736,0.929
		c-0.321,0.132-0.763,0.103-1.322-0.09l-4.735-1.632l-0.974,2.83L67.435,191.903z"/>
	<polygon points="77.861,195.179 79.709,187.766 87.173,189.629 86.899,190.731 80.836,189.221 80.361,191.122 84.019,192.033 
		83.742,193.136 80.085,192.225 79.532,194.445 85.665,195.972 85.395,197.057 	"/>
	<polygon points="95.412,198.081 95.736,188.784 104.586,189.094 104.541,190.362 97.248,190.106 97.143,193.147 101.305,193.292 
		101.263,194.533 97.102,194.389 96.969,198.136 	"/>
	<rect x="105.567" y="190.357" transform="matrix(0.9961 -0.0877 0.0877 0.9961 -16.6218 10.0712)" width="1.436" height="7.622"/>
	<path d="M115.379,190.524l-4.026,0.564l0.343,2.443l4.026-0.564c0.321-0.046,0.528-0.13,0.624-0.25
		c0.094-0.12,0.12-0.33,0.078-0.634l-0.126-0.907c-0.039-0.28-0.126-0.469-0.258-0.568
		C115.907,190.51,115.688,190.479,115.379,190.524L115.379,190.524z M110.829,197.751l-1.063-7.566l6.085-0.856
		c0.564-0.078,0.985-0.021,1.265,0.175s0.454,0.55,0.529,1.066l0.237,1.694c0.072,0.512,0,0.896-0.217,1.157
		c-0.213,0.262-0.604,0.433-1.165,0.511l-1.004,0.142l3.753,2.493l-1.908,0.268l-3.432-2.536l-2.067,0.289l0.418,2.962
		L110.829,197.751z"/>
	<polygon points="121.827,196.068 119.721,188.725 127.115,186.603 127.428,187.693 121.422,189.416 121.962,191.303 
		125.583,190.266 125.896,191.356 122.274,192.394 122.905,194.593 128.981,192.85 129.291,193.926 	"/>
	<path d="M138.579,186.609l4.462-2.274l-4.396-3.102L138.579,186.609L138.579,186.609z M137.154,191.236l0.304-10.592l1.481-0.757
		l8.824,5.943l-1.52,0.775l-2.101-1.503l-5.606,2.857l-0.019,2.578L137.154,191.236z"/>
	<path d="M147.473,178.806c0.15,0.168,0.295,0.343,0.433,0.526c0.142,0.18,0.273,0.366,0.396,0.559l2.584,3.979l-1.114,0.724
		l-4.161-6.405l0.925-0.599l7.419,1.13c0.213,0.03,0.43,0.075,0.649,0.135c0.216,0.061,0.447,0.145,0.688,0.247
		c-0.159-0.172-0.31-0.349-0.456-0.535c-0.145-0.184-0.286-0.385-0.424-0.595l-2.512-3.867l1.114-0.725l4.161,6.407l-0.826,0.537
		l-7.554-1.13c-0.271-0.048-0.511-0.102-0.722-0.165C147.86,178.965,147.662,178.894,147.473,178.806z"/>
	<path d="M159.057,178.361l-1.83-8.636l0.979-0.884l8.477,2.653l-1.163,1.046l-1.936-0.661l-3.924,3.533l0.469,1.98L159.057,178.361
		L159.057,178.361z M159.375,174.19l3.014-2.716l-3.942-1.344L159.375,174.19z"/>
	<polygon points="168.299,169.84 162.713,164.629 163.695,163.574 168.438,167.998 172.49,163.652 173.335,164.44 	"/>
	<polygon points="175.186,161.88 172.521,159.873 166.683,160.468 167.737,159.067 172.214,158.626 171.318,154.317 
		172.334,152.968 173.383,158.728 176.048,160.735 	"/>
	<path d="M177.382,146.808l-2.68,4.643l1.716,0.991l2.452-4.245c0.357-0.619,0.709-0.979,1.058-1.082
		c0.346-0.099,0.823,0.024,1.433,0.379l0.794,0.457c0.609,0.352,0.958,0.7,1.048,1.045c0.088,0.346-0.051,0.833-0.414,1.464
		l-2.323,4.023c-0.363,0.631-0.721,0.997-1.066,1.1s-0.823-0.024-1.434-0.376l-0.183-0.105l0.424-1.276l0.982,0.564l2.885-4.993
		l-1.86-1.073l-2.461,4.261c-0.36,0.625-0.715,0.986-1.058,1.085c-0.346,0.099-0.823-0.027-1.437-0.382l-0.625-0.36
		c-0.604-0.349-0.952-0.697-1.043-1.049c-0.093-0.352,0.043-0.842,0.403-1.466l2.127-3.681c0.354-0.616,0.706-0.977,1.055-1.088
		c0.346-0.111,0.791-0.013,1.328,0.3l0.159,0.091l-0.412,1.276L177.382,146.808z"/>
	<rect x="181.411" y="139.831" transform="matrix(0.4379 -0.899 0.899 0.4379 -26.767 244.4725)" width="1.434" height="7.622"/>
	<path d="M183.839,132.736l-1.92,5.003l1.848,0.709l1.755-4.576c0.259-0.67,0.551-1.081,0.875-1.234
		c0.327-0.153,0.82-0.105,1.476,0.146l0.853,0.328c0.658,0.252,1.058,0.541,1.199,0.868c0.142,0.328,0.081,0.832-0.181,1.512
		l-1.664,4.339c-0.262,0.679-0.553,1.094-0.881,1.25c-0.324,0.153-0.816,0.104-1.476-0.147l-0.195-0.075l0.217-1.331l1.061,0.408
		l2.067-5.381l-2.004-0.77l-1.764,4.592c-0.259,0.673-0.551,1.084-0.875,1.237c-0.327,0.15-0.817,0.1-1.476-0.15l-0.673-0.261
		c-0.651-0.25-1.052-0.541-1.195-0.871c-0.147-0.334-0.091-0.836,0.168-1.509l1.523-3.97c0.252-0.661,0.544-1.075,0.871-1.237
		c0.328-0.163,0.781-0.136,1.361,0.09l0.175,0.065l-0.208,1.322L183.839,132.736z"/>
</g>
<path fill-rule="evenodd" clip-rule="evenodd" fill="#F58220" d="M114.209,39.201c2.217,3.34,3.318,7.47,3.682,11.877
	c2.362,0.715,4.769,1.431,7.223,2.146c-2.401-0.326-4.778-0.674-7.138-1.039c0.448,8.349-1.662,17.547-4.125,24.305
	C126.565,68.535,132.963,52.761,114.209,39.201z"/>
<path fill-rule="evenodd" clip-rule="evenodd" fill="#F58220" d="M117.891,51.078c0,0,0,0.001,0,0.001
	c2.359,0.715,4.771,1.429,7.223,2.144C122.659,52.509,120.253,51.793,117.891,51.078z"/>
<path fill-rule="evenodd" clip-rule="evenodd" fill="#F58220" d="M125.113,53.224c-2.401-0.326-4.778-0.674-7.138-1.039l0,0
	C120.335,52.549,122.712,52.897,125.113,53.224z"/>
<path fill-rule="evenodd" clip-rule="evenodd" fill="#F58220" d="M117.891,51.08c0.031,0.368,0.065,0.733,0.085,1.105
	c2.359,0.365,4.736,0.713,7.138,1.039C122.661,52.509,120.25,51.794,117.891,51.08z"/>
</svg>
