<?xml version="1.0" encoding="utf-8"?>
<!-- Generator: Adobe Illustrator 16.1.0, SVG Export Plug-In . SVG Version: 6.00 Build 0)  -->
<!DOCTYPE svg PUBLIC "-//W3C//DTD SVG 1.1//EN" "http://www.w3.org/Graphics/SVG/1.1/DTD/svg11.dtd">
<svg version="1.1" id="Layer_1" xmlns="http://www.w3.org/2000/svg" xmlns:xlink="http://www.w3.org/1999/xlink" x="0px" y="0px"
	 width="612px" height="792px" viewBox="0 0 612 792" enable-background="new 0 0 612 792" xml:space="preserve">
<g id="XMLID_8_">
	<g>
		<path fill="#FFFFFF" d="M293.48,392.622c-0.01-0.04,0-0.09-0.01-0.11c0.16-0.24,0.35-0.45,0.48-0.71c-0.1,0.03-0.2,0-0.27-0.03
			c-0.01,0.06,0.07,0.05,0.05,0.12c-0.09,0.22-0.24,0.38-0.37,0.56c-0.02,0.02-0.08,0.01-0.12,0.01
			C293.301,392.532,293.391,392.622,293.48,392.622z M292.411,397.611c0-0.1,0.1-0.149,0.08-0.22
			C292.391,397.382,292.331,397.552,292.411,397.611z M290.581,399.701c0-0.18,0.12-0.25,0.09-0.47c-0.02-0.02-0.07-0.02-0.08-0.06
			c0.02-0.061,0.03-0.11,0.06-0.16c-0.04-0.01-0.04,0.03-0.09,0.02C290.551,399.212,290.521,399.531,290.581,399.701z
			 M289.791,392.452c-0.13-0.04-0.11-0.21-0.1-0.38c0.08-0.06,0.22-0.08,0.31-0.13c0.09,0.08,0.17,0.15,0.22,0.26
			c0.03,0.06-0.09,0.08-0.02,0.09c0.09-0.03,0.17-0.06,0.25-0.09c-0.15-0.11-0.24-0.24-0.4-0.41c-0.19-0.2-0.3-0.45-0.52-0.23
			c0.04,0,0.07,0.03,0.08,0.07c0.04,0.28-0.01,0.58,0,0.86C289.67,392.521,289.71,392.452,289.791,392.452z M326.881,390.001
			c0,3.76,0,7.52,0,11.28c-13.63,0-27.25,0-40.88,0c0-3.75,0-7.49,0-11.24c0-0.02,0-0.04,0.01-0.04
			C299.641,390.001,313.261,390.001,326.881,390.001z M326.101,399.012c-0.02-0.12-0.04-0.26-0.1-0.36c-0.12,0-0.29,0.08-0.41,0.03
			c-0.23-0.09-0.16-0.75-0.15-1.06c0.021-0.391,0.08-0.811,0.04-1.17c-0.1-0.92-1.35-0.77-2.31-0.7c-0.08-0.1-0.2-0.15-0.38-0.15
			c-0.131,0.39-0.311,0.81-0.431,1.15c0.11,0.09,0.271,0.18,0.4,0.19c0.12-0.37,0.71-0.77,1.28-0.59c0.26,0.08,0.35,0.43,0.149,0.63
			c-0.609,0.29-1.47,0.26-1.859,0.75c-0.15,0.19-0.24,0.48-0.2,0.78c0.109,0.93,1.399,1.1,2,0.58c0.109-0.101,0.17-0.23,0.29-0.29
			c0.06,0.17,0.08,0.32,0.189,0.43C324.98,399.622,325.761,399.151,326.101,399.012z M322.101,399.262
			c0.04-0.07,0.04-0.25,0.021-0.33c-0.551-0.05-0.45-0.67-0.45-1.271c0-0.359,0.01-0.74-0.021-1.04c-0.06-0.94-1.02-1.18-1.779-0.74
			c-0.2,0.11-0.36,0.27-0.561,0.34c-0.04-0.17,0.03-0.35-0.02-0.55c-0.08-0.03-0.21,0-0.311-0.01c-0.3,0.3-0.7,0.49-1.26,0.53
			c-0.021,0.09-0.021,0.26,0,0.35c0.56,0.02,0.439,0.72,0.439,1.35c0,0.54,0.051,0.87-0.319,0.99c-0.05-0.05-0.05-0.17-0.101-0.23
			c-0.3,0.08-0.52,0.07-0.56-0.229c-0.08-0.561,0.06-1.221,0.05-1.78c0-1.13-1.25-0.97-2.31-0.89c-0.09-0.1-0.21-0.15-0.391-0.15
			c-0.109,0.41-0.31,0.8-0.42,1.15c0.11,0.08,0.24,0.16,0.4,0.19c0.149-0.32,0.479-0.65,1-0.63c0.229,0,0.47,0.08,0.53,0.27
			c0.14,0.5-0.46,0.56-0.851,0.63c-0.59,0.12-1.06,0.3-1.25,0.77c-0.04,0.101-0.02,0.2-0.08,0.3c-0.1,0.19-0.63,0.561-0.899,0.24
			c-0.181-0.2-0.12-0.66-0.12-1.03c0-0.399-0.021-0.8,0.03-1.1c0.479,0,1,0.01,1.21-0.3c-0.07-0.09-0.051-0.24-0.171-0.27
			c-0.079-0.03-0.229,0.03-0.359,0.04c-0.24,0.02-0.49,0-0.68-0.01c-0.08-0.25,0.029-0.62-0.011-0.88
			c-0.109-0.03-0.279-0.01-0.41-0.02c-0.02,0.01-0.029,0.03-0.04,0.05c-0.17,0.58-0.569,0.93-1.22,1.03c-0.03,0.09-0.03,0.27,0,0.36
			c0.141,0.01,0.311-0.01,0.431,0.02c0.119,0.96-0.25,2.26,0.3,2.73c0.55,0.48,1.609,0.16,2.04-0.27c0.13,0.09,0.18,0.21,0.31,0.3
			c0.37,0.27,1.101,0.25,1.48,0.02c0.18-0.109,0.27-0.29,0.42-0.39c0.08,0.27,0.18,0.52,0.439,0.57c0.41,0.079,0.761-0.19,1.07-0.25
			c0.07,0.01,0,0.149,0.09,0.149c0.62-0.05,1.44-0.03,2.04-0.01c0.03-0.08,0.01-0.22,0.021-0.33c-0.471-0.04-0.45-0.5-0.45-1.04
			c0-0.34-0.061-0.74,0-0.95c0.05-0.17,0.35-0.34,0.529-0.37c0.381-0.09,0.511,0.19,0.53,0.5c0.061,0.69-0.109,1.75,0.12,2.2
			C321.03,399.231,321.61,399.241,322.101,399.262z M319.641,392.231c0-0.12-0.04-0.32-0.12-0.42c-0.06-0.01-0.05,0.03-0.1,0.03
			c-0.41-0.04-0.66,0.03-0.721,0.32c-0.02,0.12,0.03,0.27,0,0.4c-0.02,0.12-0.189,0.09-0.199,0.19c0.01,0.08,0.159,0.02,0.199,0.06
			c-0.01,0.29,0.061,0.9,0.021,1.21c-0.03,0.17-0.16,0.14-0.22,0.26c0.239-0.01,0.6,0.03,0.819-0.02c-0.08-0.11-0.22-0.04-0.29-0.17
			c-0.01-0.04-0.02-0.1-0.029-0.14c-0.03-0.33,0.01-0.89,0.029-1.16c0.19-0.02,0.44,0.02,0.46-0.15c-0.13-0.05-0.35,0.01-0.489-0.03
			c-0.07-0.3-0.04-0.62,0.239-0.62C319.471,391.992,319.44,392.211,319.641,392.231z M317.681,394.352
			c0.55-0.01,0.87-0.53,0.82-1.02c-0.051-0.45-0.42-0.78-0.88-0.75C316.601,392.642,316.601,394.362,317.681,394.352z
			 M316.041,393.251c0.09-0.2,0.22-0.41,0.21-0.63c-0.13,0.03-0.37-0.05-0.44,0.04c0.03,0.08,0.15,0.06,0.17,0.15
			c0.05,0.16-0.14,0.46-0.22,0.63c-0.101,0.25-0.15,0.47-0.271,0.59c-0.08-0.13-0.149-0.35-0.229-0.57c-0.08-0.23-0.2-0.46-0.2-0.62
			c0-0.13,0.18-0.08,0.19-0.19c-0.37-0.06-0.71-0.01-1.101-0.04c-0.029-0.1,0.01-0.27-0.029-0.36c-0.021,0-0.04,0-0.051,0
			c-0.029,0-0.04,0.02-0.05,0.04c-0.04,0.14-0.1,0.26-0.21,0.33c-0.06,0.04-0.16,0.04-0.16,0.13c0.01,0.07,0.15,0.02,0.2,0.06
			c0.07,0.58-0.24,1.62,0.42,1.54c0.17-0.02,0.351-0.16,0.37-0.32c-0.13-0.05-0.16,0.13-0.31,0.12c-0.131-0.01-0.181-0.12-0.19-0.25
			c-0.03-0.29,0-0.89,0.03-1.11c0.17,0.02,0.3-0.02,0.439-0.04c0.36,0.45,0.42,1.19,0.771,1.64c-0.12,0.2-0.21,0.63-0.54,0.53
			c-0.11-0.03-0.09-0.21-0.24-0.18c-0.03,0.15,0.06,0.31,0.1,0.44c0.521,0.07,0.671-0.35,0.82-0.7
			C315.7,394.062,315.871,393.651,316.041,393.251z M313.711,394.282c-0.07-0.13-0.2-0.13-0.221-0.31
			c-0.05-0.36,0.051-1.03-0.01-1.39c-0.03,0-0.06,0-0.09,0c-0.07,0.05-0.13,0.13-0.23,0.17c-0.06,0.02-0.18,0-0.17,0.1
			c0.03,0.05,0.141,0.04,0.181,0.15c0.069,0.16,0.06,0.98,0.02,1.09c-0.05,0.11-0.2,0.07-0.2,0.19
			C313.15,394.312,313.501,394.292,313.711,394.282z M313.36,392.292c0.19-0.02,0.19-0.43-0.09-0.33
			C313.091,392.021,313.16,392.312,313.36,392.292z M311.921,394.292c0.529,0.16,1.06-0.03,1.02-0.52
			c-0.01-0.12-0.069-0.23-0.14-0.3c-0.23-0.22-0.76-0.17-0.811-0.42c-0.06-0.34,0.46-0.4,0.66-0.2c0.08,0.08,0.04,0.19,0.19,0.2
			c0-0.01,0.01-0.01,0.03-0.01c0-0.13-0.021-0.35-0.091-0.46c-0.109,0.05-0.279-0.01-0.409-0.02c-0.2-0.01-0.4,0.03-0.54,0.16
			c-0.061,0.06-0.04,0.12-0.141,0.17c-0.02-0.1-0.03-0.21-0.06-0.3c-0.3-0.09-0.42,0.21-0.57,0.26c-0.01-0.12,0.021-0.22,0-0.27
			c-0.2,0.04-0.3,0.18-0.51,0.21c-0.01,0.12,0.12,0.08,0.17,0.16c0.07,0.11,0.08,0.84,0.03,1.1c-0.021,0.14-0.19,0.11-0.21,0.2
			c0.13,0.06,0.38,0.02,0.56,0.03c0.08,0,0.18,0.06,0.22-0.03c-0.09-0.08-0.239-0.08-0.26-0.25c-0.06-0.33-0.03-0.91,0.2-1.08
			c0.21-0.16,0.28,0.03,0.439,0.12c-0.04,0.52,0.561,0.42,0.841,0.62c0.06,0.04,0.109,0.13,0.109,0.21
			c0.01,0.33-0.479,0.36-0.67,0.22c-0.13-0.1-0.1-0.32-0.31-0.29c0.02,0.2,0.029,0.4,0.09,0.55
			C311.841,394.362,311.851,394.292,311.921,394.292z M311.461,399.252c0.02-0.08,0.02-0.261,0-0.341
			c-0.271-0.05-0.391-0.17-0.42-0.439c-0.051-0.561,0.02-1.22-0.011-1.8c-0.04-0.64-0.399-1.03-1.05-1.01
			c-0.6,0.02-0.859,0.34-1.29,0.58c-0.05-0.17,0.04-0.39-0.01-0.55c-0.1-0.06-0.29-0.04-0.35,0c-0.171,0.1-0.311,0.25-0.511,0.34
			c-0.21,0.09-0.42,0.13-0.71,0.16c-0.02,0.09-0.02,0.26,0,0.35c0.55,0.04,0.431,0.71,0.431,1.35c0,0.59,0.01,0.99-0.44,1.04
			c0,0.11-0.02,0.25,0.01,0.33c0.61-0.01,1.41-0.03,2.061,0c0.04-0.08,0.04-0.25,0.01-0.351c-0.69-0.05-0.33-1.289-0.43-1.97
			c0.14-0.26,0.75-0.58,0.979-0.23c0.12,0.19,0.09,0.64,0.09,1.02c0,0.61-0.08,1.17,0.101,1.53
			C310.41,399.231,310.95,399.252,311.461,399.252z M310.471,393.352c0.02-0.26-0.09-0.52-0.25-0.66c-0.08-0.06-0.22-0.13-0.36-0.14
			c-0.75-0.08-1.09,0.83-0.76,1.41c0.2,0.35,0.74,0.52,1.11,0.26c0.08-0.06,0.319-0.3,0.229-0.39s-0.17,0.1-0.189,0.12
			c-0.38,0.41-1.07,0.05-0.94-0.57C309.66,393.342,310.121,393.401,310.471,393.352z M309.03,392.622
			c-0.109,0.01-0.39-0.04-0.47,0.04c0.061,0.06,0.17,0.05,0.19,0.13c0.05,0.16-0.12,0.41-0.19,0.58c-0.08,0.22-0.13,0.42-0.24,0.52
			c-0.08-0.12-0.149-0.31-0.229-0.52c-0.061-0.16-0.22-0.43-0.17-0.58c0.02-0.07,0.149-0.05,0.14-0.15c-0.12-0.05-0.28,0-0.42,0
			c-0.1-0.01-0.22-0.07-0.27,0.02c0.029,0.08,0.119,0.09,0.17,0.15c0.02,0.02,0.04,0.07,0.06,0.1c0.21,0.39,0.35,0.96,0.55,1.37
			c0.07,0,0.15,0,0.23,0C308.57,393.702,308.871,393.231,309.03,392.622z M307.021,394.262c0.17-0.01,0.351,0.04,0.46-0.03
			c-0.02-0.09-0.12-0.07-0.17-0.15c-0.08-0.16-0.03-0.51-0.03-0.78c0-0.3,0.021-0.59-0.04-0.75c-0.159,0.08-0.28,0.2-0.479,0.24
			c0.05,0.12,0.16,0.08,0.21,0.19c0.04,0.11,0.04,0.69,0.03,0.95c-0.03,0.3-0.36,0.32-0.41,0.07c-0.07-0.4,0.1-0.98-0.08-1.26
			c-0.23-0.36-0.76-0.13-1.03,0.08c-0.05-0.08,0.06-0.24-0.04-0.27c-0.01,0-0.02,0-0.03,0c-0.05,0.07-0.12,0.12-0.2,0.16
			c-0.07,0.03-0.19,0.02-0.22,0.11c0.11,0.08,0.2,0.08,0.22,0.26c0.02,0.21,0.05,0.87-0.03,1.01c-0.04,0.08-0.15,0.08-0.19,0.13
			c0.03,0.1,0.16,0.05,0.26,0.04c0.16,0,0.36,0.03,0.45-0.01c-0.05-0.11-0.15-0.09-0.19-0.19c-0.03-0.08-0.03-0.19-0.03-0.27
			c0-0.25,0.01-0.5,0.02-0.74c0.14-0.12,0.27-0.3,0.52-0.29c0.51,0.04,0.17,1.05,0.33,1.5
			C306.591,394.262,306.831,394.271,307.021,394.262z M307.121,392.282c0.159,0,0.239-0.24,0.109-0.34
			C306.881,391.832,306.9,392.282,307.121,392.282z M307.11,397.731c0.04-0.49-0.05-0.89-0.229-1.21c-0.28-0.48-0.95-0.9-1.8-0.83
			c-0.58,0.04-1.02,0.25-1.3,0.53c-0.46,0.47-0.65,1.479-0.28,2.2c0.36,0.72,1.46,1.2,2.49,0.81
			C306.511,399.031,307.051,398.481,307.11,397.731z M305.091,392.062c-0.14-0.04-0.46-0.02-0.64,0c0.06,0.14,0.18,0.08,0.21,0.2
			c0.08,0.26,0.06,1.08,0.03,1.37c-0.07,0.68-1.21,0.74-1.28,0.03c-0.04-0.36-0.08-1.2,0.01-1.4c0.05-0.1,0.16-0.07,0.22-0.19
			c-0.23-0.02-0.55-0.02-0.78,0c0.06,0.12,0.17,0.09,0.22,0.19c0.01,0.03,0.02,0.09,0.03,0.13c0.06,0.6-0.14,1.38,0.17,1.71
			c0.4,0.44,1.49,0.28,1.57-0.4c0.05-0.39-0.05-0.93,0-1.32C304.871,392.162,304.98,392.202,305.091,392.062z M303.511,399.262
			c0.03-0.09,0.04-0.25,0.01-0.351c-0.5,0-0.46-0.449-0.48-0.979c-0.03-0.48-0.08-1.12-0.11-1.59c-0.01-0.29-0.05-0.57-0.04-0.82
			c0.02-0.37,0.17-0.53,0.45-0.57c0-0.11,0-0.22,0-0.33c-0.67,0.03-1.38,0.05-2.05,0c-0.22,0.59-0.39,1.23-0.59,1.83
			c-0.06,0.2-0.13,0.41-0.24,0.58c-0.29-0.78-0.52-1.6-0.78-2.41c-0.66,0.04-1.36,0.05-2.03,0.02c-0.05,0.08-0.02,0.24-0.01,0.36
			c0.6,0.01,0.46,0.82,0.41,1.39c-0.07,0.95-0.19,2.05-0.26,2.88c0.44-0.02,0.94-0.05,1.37,0c0.03-0.1,0.05-0.27,0-0.37
			c-0.34,0.03-0.56-0.109-0.59-0.38c-0.04-0.39,0.04-0.92,0.07-1.42c0.04-0.52,0.04-1.04,0.12-1.4c0.43,1.15,0.75,2.36,1.14,3.57
			c0.19-0.02,0.39-0.01,0.59,0c0.19-0.59,0.36-1.2,0.56-1.8c0.19-0.59,0.36-1.19,0.62-1.74c0.06,0.37,0.06,0.86,0.1,1.351
			c0.03,0.489,0.1,1,0.06,1.399c-0.04,0.36-0.31,0.42-0.64,0.43c-0.02,0.091-0.02,0.271,0,0.36
			C301.9,399.222,302.821,399.241,303.511,399.262z M302.271,393.342c0.01-0.24-0.08-0.51-0.24-0.65c-0.12-0.1-0.34-0.17-0.56-0.14
			c-0.5,0.06-0.73,0.57-0.68,1.06c0.06,0.53,0.72,0.97,1.22,0.61c0.07-0.05,0.35-0.34,0.2-0.4c-0.07-0.04-0.09,0.06-0.14,0.11
			c-0.37,0.43-1.06,0.1-0.95-0.53C301.44,393.312,301.951,393.432,302.271,393.342z M300.341,394.262c0.12,0.01,0.39,0.06,0.46-0.03
			c-0.05-0.06-0.15-0.08-0.18-0.15c-0.14-0.28,0.03-0.83-0.03-1.16c-0.03-0.12-0.15-0.29-0.25-0.33c-0.34-0.14-0.66,0.13-0.86,0.22
			c0-0.18-0.02-0.39-0.02-0.58c0.01-0.13,0.06-0.29-0.02-0.39c-0.02,0-0.03,0-0.05,0c-0.33,0.36-1.32,0.2-1.87,0.18
			c-0.02,0.14-0.08,0.38-0.04,0.49c0.13,0,0.14-0.16,0.24-0.22c0.13-0.09,0.35-0.1,0.53-0.04c0,0.25,0,0.59,0,0.93
			c0,0.31,0.07,0.73-0.02,0.91c-0.05,0.09-0.19,0.06-0.21,0.17c0.19,0.01,0.66,0.06,0.77-0.01c-0.03-0.09-0.16-0.07-0.2-0.16
			c-0.1-0.18-0.03-0.61-0.03-0.92c0-0.36-0.01-0.7,0.01-0.94c0.2-0.03,0.54-0.04,0.61,0.16c0.06,0.19,0.01,0.52,0.01,0.86
			c0,0.29,0.06,0.7-0.03,0.85c-0.04,0.08-0.19,0.08-0.19,0.16c0.11,0.07,0.26,0.02,0.41,0.02c0.1,0,0.25,0.06,0.3-0.03
			c-0.04-0.1-0.12-0.06-0.17-0.16c-0.12-0.23,0.03-0.72-0.03-1.02c0.13-0.16,0.41-0.37,0.66-0.26
			C300.521,392.981,300.15,393.882,300.341,394.262z M295.991,397.002c0.05-0.311,0.14-0.66,0.12-1c-0.08-0.01-0.02,0.11-0.07,0.12
			c-0.05-0.01-0.05-0.07-0.09-0.09c-0.03,0.09-0.11,0.04-0.22,0.05c-0.07,0.05-0.2,0.05-0.27,0.11c0-0.04,0.05-0.04,0.03-0.1
			c-0.05,0.04-0.14,0.05-0.14,0.15c0.06,0.02,0.16-0.01,0.18,0.05c-0.04,0.1-0.16,0.14-0.24,0.2c-0.08,0-0.09-0.06-0.17-0.05
			c-0.04,0.03,0,0.07,0,0.11c0.12,0.04,0.24-0.02,0.31-0.03c0.01,0.04-0.02,0.04-0.01,0.08c0.05,0.01,0.11,0.02,0.13,0.08
			c-0.01,0.1-0.11,0.1-0.13,0.17c0.06,0.12,0.41,0.13,0.5,0.08c0.03,0.05-0.07,0.08-0.03,0.15c-0.03,0.04-0.09,0.029-0.13,0.06
			c0.01,0.1-0.13,0.2-0.18,0.1c0.02-0.08,0.12-0.02,0.14-0.08c-0.09-0.1-0.23,0.061-0.27,0.141c-0.13,0.02-0.34,0-0.54-0.01
			c-0.26-0.021-0.56-0.011-0.76-0.08c0.27-0.22,0.5-0.48,0.78-0.7c0.03-0.03,0.05-0.01,0.08,0c0.02-0.07,0.05-0.14,0.12-0.16
			c0.06-0.01,0.04,0.08,0.1,0.07c0.03-0.02,0.06-0.03,0.06-0.08c-0.1,0.02-0.22-0.06-0.15-0.12c0.05,0,0.04,0.06,0.1,0.04
			c-0.01-0.07,0.06-0.1,0.09-0.17c-0.06,0-0.13-0.03-0.19,0c0.01,0.06-0.02,0.1-0.05,0.12c-0.07-0.03-0.08-0.01-0.12-0.02
			c-0.01-0.07,0.09-0.05,0.09-0.11c-0.09,0.04-0.12-0.02-0.18,0.04c-0.09-0.07-0.21-0.11-0.27-0.2c-0.04,0.05-0.12,0.12-0.1,0.19
			c0.07-0.02,0.1-0.06,0.17-0.06c0,0.02,0.01,0.03,0.02,0.04c-0.02,0.05-0.08,0.07-0.07,0.15c0.06-0.03,0.18,0.05,0.23-0.05
			c0.01,0.11,0.15,0.1,0.2,0.13c-0.12,0.05-0.16,0.17-0.28,0.22c0.05-0.05,0.1-0.09,0.12-0.16c-0.18,0.05-0.31,0.32-0.48,0.36
			c-0.06,0.01-0.12-0.01-0.18-0.02c-0.19,0-0.38,0-0.59-0.02c-0.05-0.09-0.1-0.17-0.1-0.31c-0.06-0.03-0.09,0.01-0.16,0
			c0.07,0.37-0.01,0.82,0.05,1.14c0.23-0.069,0.38-0.199,0.62-0.239c0.04-0.011,0.02,0.05,0.06,0.04c0.34,0.04,0.72,0.04,1.07,0.069
			c0.05-0.01,0.1-0.09,0.16-0.04c-0.02,0.03-0.09,0-0.08,0.061c0.07-0.021,0.08,0.02,0.08,0.08c-0.07-0.021-0.14-0.03-0.23-0.03
			c-0.03,0.05-0.05,0.1-0.09,0.13c-0.05-0.02-0.07,0.021-0.1-0.03c0.02-0.029,0.06-0.05,0.06-0.109c-0.4,0.04-0.73-0.11-1.08-0.04
			c-0.16,0.029-0.33,0.149-0.48,0.229c-0.1,0.05-0.21,0.09-0.3,0.13c0.02,0.061,0.01,0.13-0.05,0.15c-0.28-0.03-0.44,0.06-0.6,0.18
			c0.06-0.01,0.15-0.06,0.19-0.06c-0.13,0.1-0.32,0.13-0.45,0.24c0.26-0.04,0.48-0.261,0.71-0.24c-0.18,0.17-0.46,0.24-0.69,0.35
			c-0.01,0.061,0,0.141-0.02,0.181c-0.09,0.05-0.21-0.021-0.3,0.02c-0.02,0.05,0.05,0.01,0.04,0.04c-0.05,0.03-0.1,0.05-0.16,0.07
			c-0.02-0.061-0.06,0-0.08-0.061c0.09-0.05,0.16-0.12,0.27-0.149c0.09-0.33-0.04-0.761,0.06-1.04c0.02,0.14,0.01,0.34,0.01,0.529
			c0,0.17-0.06,0.42,0.09,0.46c-0.01-0.069,0.04-0.199-0.04-0.229c0.09-0.021,0-0.13,0.1-0.14c0.03-0.011-0.01,0.06,0.04,0.04
			c0.06-0.011,0.1-0.04,0.09-0.131c0.07-0.029,0.14-0.069,0.2-0.109c-0.03-0.09,0.03-0.21-0.02-0.311c-0.15,0.04-0.02,0.36-0.2,0.36
			c0-0.07,0.06-0.23-0.03-0.26c-0.1,0.08,0,0.35-0.17,0.35c0.05-0.13,0.07-0.399,0.19-0.5c-0.05-0.05-0.09,0.01-0.13,0.03
			c0.02-0.07-0.05-0.03-0.06-0.061c-0.01-0.08,0.03-0.119,0.03-0.189c-0.08-0.021-0.08,0.05-0.16,0.03c0-0.021-0.02-0.021-0.03-0.04
			c0.05-0.17,0.1-0.32,0.16-0.48c0.06,0.05,0.01,0.22,0.1,0.23c0.02-0.2,0.18-0.42,0.1-0.57c0.04-0.03,0.04-0.1,0.1-0.11
			c0.15,0.13-0.04,0.37,0.1,0.52c0.03-0.02,0.01-0.09,0.02-0.14c0.08-0.05,0.05-0.2,0.14-0.25c0.02,0.06-0.01,0.1,0.02,0.16
			c0.07,0.03,0.12,0.01,0.2,0.03c-0.05-0.09,0.05-0.08,0.07-0.14c-0.07-0.14,0.05-0.41,0-0.62c0.04-0.05,0.1-0.07,0.1-0.16
			c-0.02-0.02-0.06-0.02-0.06-0.06c-0.05-0.43,0.02-1.17-0.03-1.68c0.04-0.07,0.12-0.09,0.12-0.19c-0.05-0.01-0.1-0.03-0.12-0.07
			c0.01-0.2,0-0.33,0-0.53c-0.07-0.1-0.3,0-0.37-0.06c0.04-0.18,0.13-0.45-0.01-0.59c0.02,0,0.03-0.01,0.04-0.03
			c-0.09,0.02-0.06-0.09-0.09-0.13c-0.01,0.02-0.02,0.04-0.06,0.04c-0.03-0.03-0.07-0.04-0.11-0.07c-0.21-0.44-0.36-0.92-0.56-1.37
			c-0.07-0.15-0.18-0.31-0.15-0.54c-0.09,0.11-0.04,0.23-0.05,0.35c-0.03,0.2-0.13,0.41-0.18,0.62c-0.07,0.32-0.16,0.68-0.23,0.97
			c-0.06,0.27-0.03,0.43,0.05,0.63c-0.14-0.01-0.3-0.06-0.41,0.02c0.06,0.14-0.01,0.36,0.1,0.52c-0.03,0.03-0.15,0.05-0.18,0.04
			c0.05-0.05,0.06-0.08,0.04-0.17c-0.07,0.03-0.08,0.2-0.2,0.14c-0.05-0.06,0.06-0.05,0.04-0.12c-0.09-0.04-0.19,0.03-0.27,0.03
			c0.01,0.17,0,0.31,0.01,0.54c-0.03,0.04-0.12,0.02-0.13,0.08c0.03,0.08,0.07,0.14,0.12,0.2c-0.01,0.45,0.02,1.13-0.03,1.57
			c-0.01,0.05-0.08,0.04-0.09,0.09c0.08,0.12,0.1,0.16,0.1,0.29c0.01,0.919,0.02,1.8,0,2.72c0.01,0.02,0.07,0,0.08,0.029
			c-0.01,0.04-0.06,0.021-0.08,0.04c0.01,0.351-0.03,0.681,0,1.04c0.03,0.011,0.09-0.02,0.09,0.011c-0.02,0.02-0.06,0.02-0.1,0.02
			c0,0.05,0,0.09,0,0.14c0.03,0.021,0.11,0.011,0.1,0.07c-0.03,0.021-0.07-0.07-0.07,0c-0.04,0.021,0.05,0.03,0.04,0.08
			c-0.02,0.03-0.09,0.03-0.16,0.02c0.07-0.31,0.01-0.68,0.05-0.949c-0.01-0.03-0.05-0.03-0.06-0.051
			c0.03-0.029,0.05-0.069,0.03-0.119c-0.2,0.069-0.56,0.01-0.74,0.06c0.15-0.23,0.5-0.36,0.69-0.58c-0.13,0-0.44-0.04-0.57,0
			c-0.02-0.06-0.03-0.24-0.15-0.24c-0.05,0.221,0.03,0.59-0.04,0.79c-0.09-0.14,0.02-0.35-0.03-0.52
			c-0.05-0.021-0.06,0.069-0.09,0.03c0-0.08,0.03-0.12,0.06-0.16c-0.08-0.051,0.01-0.17-0.03-0.24c0,0.12-0.06,0.2-0.05,0.33
			c-0.03,0-0.05,0-0.08,0c0.01,0.12,0,0.229-0.07,0.27c-0.02-0.01-0.08,0.021-0.08-0.01c0-0.05,0.05-0.04,0.04-0.09
			c-0.05-0.021-0.16,0.09-0.12,0.16c-0.2,0.189-0.44,0.34-0.63,0.55c0.04,0.04,0.1,0.03,0.14,0.03c0.23-0.04,0.49-0.221,0.71-0.261
			c0.03,0.101,0.12-0.05,0.19,0.011c-0.22,0.18-0.57,0.229-0.79,0.399c0.1,0.101,0.24,0.17,0.44,0.16
			c0.01,0.061,0.03,0.101,0.03,0.16c0.06,0,0.04-0.09,0.1-0.09c0.06,0.06-0.02,0.17,0.09,0.16c0-0.16,0.16-0.2,0.16-0.33
			c0.12,0.12-0.07,0.35,0.08,0.45c0.02-0.101,0.03-0.15,0.02-0.261c0.04-0.04,0.13-0.04,0.17-0.09c-0.08-0.01-0.09,0.061-0.17,0.05
			c0-0.04,0-0.08,0-0.12c0.09-0.06,0.21-0.09,0.31-0.14c0.02,0.21,0,0.46,0.03,0.72c0.07,0.021,0.1,0,0.18,0
			c0.01,0.091,0.13,0.07,0.21,0.101c0.04-0.03-0.03-0.09,0.03-0.101c0.03,0.021,0.1,0,0.12,0.03c-0.02,0.04-0.11,0.05-0.08,0.1
			c0.05-0.01,0.07,0.011,0.1,0.011c0.07-0.11-0.03-0.29,0.08-0.36c-0.08-0.08,0.02-0.16-0.08-0.22c0.05-0.07,0.03-0.181,0.03-0.26
			c0.03-0.37-0.02-0.891,0-1.221c0.01-0.04-0.02-0.149,0.07-0.14c-0.01,0.13,0.01,0.33,0,0.5c0.22-0.03,0.02-0.521,0.15-0.59
			c0.05,0.1,0.01,0.38,0.03,0.52c0.06-0.01,0.06-0.09,0.07-0.13c0.03-0.22-0.03-0.56,0-0.79c-0.15,0.021,0.01,0.351-0.16,0.34
			c0.01-0.08,0.05-0.239-0.04-0.26c-0.06,0.11-0.01,0.311-0.13,0.35c0.01-0.14,0.1-0.399,0.13-0.52c-0.07-0.01-0.04,0.08-0.1,0.09
			c0.01-0.58-0.03-1.21,0.03-1.74c0.08-0.08,0.17-0.15,0.27-0.21c0.03-0.02,0-0.09,0.06-0.08c0.05,0.89,0,1.97,0,2.82
			c0.03,0.03,0.07-0.03,0.1,0.01c0,0.07-0.07,0.051-0.1,0.08c0.03,0.24-0.01,0.45,0,0.73c0.01,0.04,0.08,0.02,0.08,0.069
			c-0.05,0-0.05-0.01-0.08,0.021c0.03,0.09,0.01,0.11,0,0.2c0.05,0.02,0.1-0.08,0.17-0.09c0.08,0.04,0.16,0,0.22-0.03
			c0,0.06-0.06,0.04-0.05,0.1c-0.04,0.011-0.06-0.02-0.11-0.01c-0.06,0.05-0.01,0.14-0.06,0.19c-0.02-0.021-0.01-0.07-0.04-0.08
			c-0.05,0-0.09,0-0.13,0c0,0.029,0,0.05,0,0.08c-0.01,0.04,0.08-0.011,0.07,0.029c-0.04,0.021,0.04,0.101-0.03,0.11
			c-0.03-0.07-0.05-0.06-0.11-0.07c-0.01-0.35-0.06-0.79-0.02-1.17c-0.14,0.15,0.01,0.601-0.09,0.79c0.04,0.08,0.01,0.19,0.06,0.28
			c-0.02,0.07-0.18,0.01-0.19,0.1c0.02,0.061,0.11-0.02,0.15,0.03c-0.01,0.03,0.02,0.11-0.03,0.1c-0.02,0-0.01-0.04-0.01-0.06
			c-0.06,0.01-0.05,0-0.12,0c-0.01,0.07,0.03,0.09,0.04,0.13c0.08,0,0.09-0.02,0.13,0.021c-0.01,0.13,0.02,0.21-0.04,0.279
			c-0.03,0-0.01-0.04-0.04-0.04c-0.04,0.11,0.08,0.061,0.07,0.141c0.35,0.05,0.57,0.029,0.95,0.05c0.09-0.061,0.08-0.13,0.14-0.22
			c0.06,0.09,0.13-0.08,0.16,0c-0.02,0.06-0.09,0.109-0.14,0.06c0,0.06-0.08,0.08-0.05,0.13c0.06,0.01,0.18,0.021,0.23-0.03
			c0.02-0.069-0.05-0.14,0.03-0.159c0.07,0,0.04,0.1,0.05,0.159c0.02,0,0.04,0,0.07,0c0.04-0.449-0.01-1.109,0.03-1.6
			c0.05,0.021-0.02,0.1,0.04,0.13c0.02-0.04,0.06-0.08,0.12-0.09c0-0.05,0-0.11,0-0.17c0.07-0.04,0.3-0.01,0.28-0.1
			c-0.04,0.029-0.1,0.029-0.14,0.06c-0.03-0.01,0.01-0.1-0.04-0.09c-0.08,0-0.1,0.06-0.19,0.04c0-0.01-0.01-0.03-0.01-0.04
			c0.05-0.13,0.13-0.141,0.28-0.13c0.03,0.06-0.01,0.12,0.03,0.13c0-0.05,0-0.09,0-0.141c0.06,0.03,0.04-0.02,0.1-0.02
			c0.01,0.03-0.01,0.15,0.02,0.1c0.01-0.029-0.03-0.12,0.03-0.109c0.04,0-0.03,0.12,0.04,0.1c0.01-0.04-0.02-0.11,0.01-0.13
			c0.05,0-0.02,0.12,0.05,0.1c0.01-0.04-0.02-0.109,0.01-0.13c0.06-0.01,0.01,0.141,0.04,0.101c0-0.04,0-0.08,0-0.11
			c0.13-0.02,0.02-0.18,0.12-0.22c0.06,0.29-0.08,0.62,0.1,0.779c0,0.44,0,0.79,0,1.24c0.04,0.021,0.08-0.029,0.13-0.029
			c0-0.341,0-0.631,0.01-0.94c-0.01-0.03-0.05-0.03-0.05-0.07c0.07-0.069,0.03-0.319,0.05-0.39c-0.09-0.021-0.08,0.06-0.15,0.06
			c-0.06-0.09,0.03-0.14,0.08-0.17c-0.02-0.01-0.08,0.011-0.08-0.02c0.02-0.13-0.04-0.29,0.04-0.34c0,0.05,0,0.1,0,0.149
			c0.07-0.02,0.08-0.1,0.17-0.1c-0.03-0.12,0.1-0.07,0.09-0.17c-0.05-0.01-0.09,0.04-0.1-0.01c0.03-0.04,0.09-0.03,0.13-0.061
			c0-0.03,0-0.07,0-0.1c-0.1-0.011-0.14,0.08-0.23,0.04c-0.02-0.181,0.17-0.16,0.24-0.261c0.01,0.03,0.04,0.03,0.04,0.061
			c-0.04,0.16,0.06,0.54-0.04,0.68c0.05,0.03,0.04,0.101,0.03,0.17c-0.03,0-0.07,0-0.09,0.01c-0.09,0.391-0.01,0.961-0.04,1.421
			c0.07,0,0.09-0.04,0.14-0.051c0-0.31,0.02-0.609,0.02-0.949c-0.03-0.011-0.07-0.021-0.07-0.061c0.09-0.05,0.06-0.22,0.05-0.33
			c0.04,0.01,0.06,0,0.08-0.01c-0.01-0.07,0.02-0.1,0.01-0.16c0.09-0.08,0.22-0.12,0.33-0.17c0.06-0.01,0.15,0.01,0.15-0.06
			c-0.18-0.021-0.3,0.13-0.49,0.14c0-0.04,0-0.08,0-0.13c0.16-0.07,0.35-0.11,0.49-0.21c-0.18,0.04-0.33,0.109-0.49,0.17
			c0.01-0.07-0.03-0.19,0.03-0.22c0.03,0.02-0.02,0.13,0.04,0.119c0.01-0.05-0.02-0.14,0.03-0.14c0.03,0.021-0.01,0.12,0.03,0.14
			c0.05-0.05-0.05-0.149,0.03-0.17c0.05-0.01,0,0.16,0.04,0.131c0.01-0.061-0.03-0.16,0.04-0.15c0.01,0.05-0.02,0.14,0.03,0.15
			c0.02-0.061-0.03-0.171,0.03-0.181c0.05,0.01-0.03,0.141,0.04,0.13c0.01-0.05-0.02-0.13,0.02-0.149c0.05,0.01-0.01,0.1,0.05,0.12
			c0.03-0.061-0.02-0.12,0.03-0.15c0.04,0.04-0.02,0.1,0.03,0.14c0.04-0.029-0.01-0.14,0.03-0.17c0.06-0.029,0.01,0.061,0.04,0.061
			c0-0.07,0-0.12,0.08-0.11c0,0.07-0.01,0.13,0.01,0.18c-0.01,0.04-0.07,0.04-0.09,0.08c0.02,0.011,0.08-0.01,0.08,0.021
			c0.01,0.09-0.03,0.12-0.05,0.17c0.06,0.07,0.06,0.17,0.06,0.26c0,0.33-0.04,0.72,0,1.061c0.13-0.051,0.23-0.131,0.3-0.24
			c0.02-0.07-0.05-0.13,0.02-0.16c0.02,0.03,0.01,0.1,0.01,0.15c0.28-0.221,0.53-0.48,0.71-0.801c-0.01-0.05-0.07-0.05-0.1-0.08
			c0.05-0.04,0.14-0.04,0.21-0.06c0.1-0.21,0.23-0.38,0.33-0.62c-0.02,0-0.07,0.021-0.05-0.03c0.01-0.01,0.05-0.01,0.08-0.01
			c0.04-0.09,0.08-0.17,0.1-0.26c-0.08-0.04-0.17-0.03-0.24,0.01c0-0.03,0-0.06,0-0.08c0.08-0.02,0.16,0,0.26,0.01
			c0-0.109,0.08-0.159,0.1-0.26c-0.01-0.04-0.06-0.04-0.06-0.08c0.1,0.04,0.16-0.189,0.12-0.279
			C295.98,397.052,295.971,397.002,295.991,397.002z M296.041,395.892c0.01-0.02,0.02-0.04,0.01-0.07
			c-0.02-0.01-0.07,0.01-0.07-0.02c-0.02-0.08,0.1-0.05,0.07-0.14c-0.08,0.01-0.12,0.06-0.16,0.11c0.08,0.02,0.02,0.08,0,0.12
			C295.931,395.872,296,395.872,296.041,395.892z M295.821,395.981c0.04,0.04,0.09-0.04,0.03-0.05
			C295.851,395.952,295.831,395.961,295.821,395.981z M295.491,394.132c0.14-0.01,0.28,0.04,0.36,0.03
			c-0.06-0.17-0.17-0.29-0.23-0.46c-0.09,0-0.16,0.01-0.23,0.03c0.13,0.08,0.26,0.15,0.29,0.33c-0.12,0.04-0.24-0.04-0.36-0.04
			c0.3,0.28-0.24,0.56-0.45,0.24c-0.05-0.07-0.03-0.13-0.1-0.2c0,0.27,0.18,0.49,0.52,0.46
			C295.431,394.461,295.541,394.352,295.491,394.132z M295.69,395.961c0.04-0.02,0.08-0.04,0.13-0.06
			C295.811,395.802,295.661,395.941,295.69,395.961z M295.661,395.802c0.09,0.01,0.15-0.09,0.13-0.14
			c-0.04,0.08-0.12-0.01-0.14-0.04c-0.01,0.03-0.04,0.02-0.05,0.05C295.701,395.702,295.611,395.751,295.661,395.802z
			 M295.621,395.852c-0.17-0.01-0.38,0.07-0.48,0.18c0.15,0.04,0.18-0.13,0.34-0.13c-0.01,0.05-0.09,0.03-0.08,0.1
			C295.5,396.032,295.571,395.921,295.621,395.852z M295.361,397.031c0.03-0.02,0.04-0.05,0.09-0.05c-0.05-0.08-0.14-0.12-0.28-0.11
			c0.01,0.06,0,0.07,0.02,0.11C295.271,396.972,295.311,397.012,295.361,397.031z M295.23,397.212c0.05-0.011,0.11-0.03,0.1-0.11
			c-0.06-0.05-0.06,0.04-0.13,0.03C295.19,397.182,295.221,397.191,295.23,397.212z M295.321,396.782c0.02-0.02-0.01-0.03,0-0.08
			c-0.12-0.01-0.19,0.02-0.26,0.02c0-0.06,0.14-0.06,0.14-0.08c-0.09,0-0.18-0.08-0.24-0.02c0.01,0.13,0,0.23-0.06,0.29
			c0.1,0,0.1,0.09,0.17,0.12c0.08-0.1-0.04-0.229,0.09-0.29C295.19,396.802,295.25,396.771,295.321,396.782z M295.301,393.332
			c0.04-0.36-0.43-0.59-0.63-0.29c-0.08,0.12-0.07,0.27,0,0.37c0.06,0.09,0.16,0.1,0.21,0.18c-0.11,0.07-0.36,0.05-0.48,0.04
			C294.721,393.852,295.271,393.662,295.301,393.332z M295.23,397.031c-0.06-0.05-0.15,0.07-0.09,0.101
			C295.161,397.082,295.221,397.082,295.23,397.031z M295.17,395.921c-0.02-0.01-0.03-0.02-0.05-0.03
			c-0.03,0.06-0.12,0.07-0.13,0.14C295.071,396.021,295.111,395.961,295.17,395.921z M294.701,392.662c0.1-0.39-0.64-0.63-0.59-0.07
			c-0.27-0.03-0.38,0.13-0.35,0.32c0.07,0.36,0.78,0.43,0.64-0.12C294.541,392.832,294.67,392.762,294.701,392.662z
			 M293.631,396.151c0.05,0.06,0.27,0.02,0.3,0.04C293.881,396.142,293.701,396.151,293.631,396.151z M293.861,400.052
			c0.03-0.25,0.01-0.561,0.02-0.83c-0.01-0.061-0.08-0.04-0.08-0.1c0.11-0.04,0.06-0.23,0.08-0.351c-0.07,0.021-0.11-0.03-0.15,0
			c-0.05,0.39,0.01,0.89-0.01,1.34C293.771,400.142,293.811,400.062,293.861,400.052z M293.65,396.382
			c0.03-0.06-0.08-0.15-0.13-0.13C293.531,396.332,293.581,396.362,293.65,396.382z M293.391,396.312c0.02-0.04-0.03-0.09-0.06-0.12
			C293.301,396.231,293.331,396.312,293.391,396.312z M293.371,396.162c0.01-0.06-0.04-0.11-0.08-0.08
			C293.301,396.122,293.301,396.182,293.371,396.162z M293.271,397.262c0.08-0.05,0.12-0.37-0.03-0.45
			c-0.14,0.11-0.04,0.47-0.21,0.55c-0.05-0.05,0.02-0.08,0.04-0.1c-0.02-0.3,0.07-0.49,0.2-0.64c-0.06-0.05-0.11,0.08-0.14,0.05
			c0.02-0.16,0.07-0.3,0.1-0.45c-0.02,0-0.02-0.02-0.04-0.01c-0.08,0.18-0.06,0.46-0.18,0.6c-0.03-0.04,0.02-0.1,0.02-0.16
			c-0.03,0-0.05,0-0.07,0c0.05,0.26-0.02,0.62,0.02,0.95c0.01,0.06-0.03,0.16,0.06,0.18c0.03-0.09-0.06-0.27,0.09-0.26
			c0.01,0.07-0.03,0.19,0.04,0.2c0.17-0.07-0.01-0.32,0.15-0.4C293.311,397.292,293.261,397.302,293.271,397.262z M292.94,397.592
			c0-0.07-0.01-0.141,0.02-0.19c-0.16-0.02-0.22-0.149-0.19-0.359c-0.04-0.021-0.15-0.021-0.19,0c0.01,0.08,0.07,0.119,0.1,0.17
			c-0.08,0.17-0.1,0.39-0.07,0.609C292.73,397.752,292.841,397.682,292.94,397.592z M292.931,397.781
			c-0.05-0.069-0.17,0.021-0.19,0.07c-0.11,0.021-0.18,0.07-0.25,0.14C292.65,397.932,292.811,397.882,292.931,397.781z
			 M292.831,400.451c-0.03-0.31,0.05-0.729-0.05-0.97c0.07-0.04,0.05-0.24,0.03-0.32c-0.07-0.02-0.08,0.03-0.13,0.04
			c0.02,0.431-0.02,0.881,0.02,1.311C292.75,400.502,292.791,400.481,292.831,400.451z M292.741,398.842
			c0.06,0.01,0.09-0.021,0.11-0.04C292.801,398.802,292.761,398.802,292.741,398.842z M292.611,399.122
			c0.04-0.11,0.2-0.08,0.26-0.16c-0.15,0.02-0.28,0.12-0.39,0.14C292.491,399.191,292.551,399.102,292.611,399.122z
			 M292.411,397.241c-0.01-0.08,0.02-0.199-0.02-0.26C292.381,397.042,292.351,397.212,292.411,397.241z M292.321,396.972
			c0.02-0.06,0.07-0.15,0.04-0.2C292.351,396.832,292.301,396.921,292.321,396.972z M292.311,400.672
			c-0.01-0.08,0.02-0.12,0.01-0.19c-0.04,0-0.06,0.04-0.07-0.01c0.1-0.19,0.09-0.5,0.01-0.66c0.09-0.01,0.05-0.16,0.06-0.25
			c-0.05-0.01-0.08,0.01-0.11,0.03c0.01,0.359-0.02,0.76,0.01,1.09C292.25,400.691,292.261,400.661,292.311,400.672z
			 M292.25,398.212c0.05-0.011,0.1-0.03,0.13-0.061C292.321,398.151,292.281,398.182,292.25,398.212z M292.221,397.361
			c0.01-0.02,0.06-0.08,0.02-0.1C292.23,397.281,292.181,397.332,292.221,397.361z M291.071,392.532c0.08-0.02,0.07-0.13,0.1-0.21
			c-0.07-0.07-0.29,0.01-0.35-0.07c0,0.03-0.04,0.04-0.04,0.08c0.04,0.01,0.1-0.01,0.1,0.03c0,0.05,0.01,0.08,0.02,0.12
			c-0.02,0.01-0.06,0.01-0.08,0.03c0.02,0.09-0.03,0.24,0.03,0.28c0.09-0.12,0.09-0.33,0.18-0.44
			C291.051,392.401,291.041,392.492,291.071,392.532z M290.811,392.852c-0.05,0.01-0.01-0.08-0.07-0.06
			c-0.04,0.02-0.01,0.1-0.06,0.1c0-0.08,0.05-0.18-0.04-0.2c-0.04,0.08,0.02,0.17,0,0.28c0.02,0.04,0.06-0.03,0.07,0.01
			c0.01,0.05-0.03,0.05-0.07,0.04c0,0.1,0,0.18,0.03,0.25c0.02-0.05-0.02-0.17,0.04-0.2c0.02,0.06,0.01,0.09,0,0.16
			C290.771,393.132,290.701,392.901,290.811,392.852z M290.771,397.102c0.03-0.09,0.05-0.34,0.01-0.42
			C290.71,396.742,290.721,397.021,290.771,397.102z M290.721,398.021c0-0.09,0.08-0.149,0.06-0.22
			C290.701,397.802,290.631,397.991,290.721,398.021z M290.741,393.441c-0.01-0.05,0.02-0.13-0.03-0.14
			C290.71,393.352,290.701,393.421,290.741,393.441z M290.591,397.302c0.1,0.02,0.23-0.05,0.23-0.17
			C290.741,397.172,290.631,397.201,290.591,397.302z M290.621,400.352c-0.03,0.06,0.09,0.07,0.07,0.021
			C290.701,400.342,290.641,400.361,290.621,400.352z M290.69,396.782c-0.01,0-0.02-0.02-0.04-0.01c-0.06,0.05-0.07,0.34,0,0.39
			C290.69,397.042,290.661,396.921,290.69,396.782z M290.591,396.651c0.11-0.03,0.21-0.06,0.23-0.17
			C290.741,396.532,290.631,396.552,290.591,396.651z M290.69,400.481c-0.03-0.05-0.12-0.02-0.13,0.05
			C290.631,400.531,290.69,400.531,290.69,400.481z M290.65,399.991c0-0.04,0-0.09,0-0.14c-0.05,0.01-0.05-0.05-0.09-0.06
			c0.01,0.069-0.02,0.159,0,0.229C290.611,400.031,290.621,400.002,290.65,399.991z M290.591,400.382c0.01-0.04-0.02-0.05-0.05-0.04
			C290.521,400.392,290.571,400.411,290.591,400.382z M290.541,400.611c0.03,0.011,0.04-0.02,0.04-0.05
			C290.541,400.562,290.511,400.592,290.541,400.611z M290.291,399.231c-0.16,0.01-0.26,0.021-0.39-0.01
			c0.12-0.15,0.3-0.22,0.41-0.38c-0.19,0.069-0.3,0.24-0.45,0.35c-0.08,0.061-0.17,0.07-0.25,0.141
			C289.771,399.191,290.17,399.411,290.291,399.231z M289.701,400.441c0.03-0.02,0.06-0.16-0.01-0.16
			C289.641,400.302,289.65,400.441,289.701,400.441z M289.611,398.411c-0.03,0.051,0.01,0.11,0.08,0.101
			C289.69,398.451,289.661,398.422,289.611,398.411z M289.511,398.372c0-0.021,0.01-0.04,0.02-0.051c-0.04,0-0.06-0.029-0.07,0.021
			C289.48,398.342,289.471,398.382,289.511,398.372z M289.411,392.662c-0.02-0.07-0.02-0.17-0.1-0.2c0,0.23-0.17,0.29-0.33,0.35
			c-0.15-0.22-0.31-0.43-0.42-0.69c0-0.02,0.07-0.08,0-0.08c-0.07,0.07-0.18,0.08-0.23,0.16c0.04,0,0.07,0,0.1,0
			c0.15,0.22,0.31,0.43,0.42,0.69c0,0.04-0.02,0.06-0.03,0.09C289.051,392.901,289.19,392.742,289.411,392.662z M288.041,393.702
			c0.25,0.03,0.46-0.22,0.45-0.45c-0.01-0.31-0.47-0.37-0.56-0.61c-0.01-0.03,0.02-0.08-0.01-0.08c-0.06,0.06-0.11,0.12-0.15,0.19
			c0.05,0.01,0.06-0.02,0.12-0.01c0.14,0.17,0.48,0.24,0.53,0.47c0.04,0.21-0.12,0.42-0.35,0.38c-0.08-0.02-0.19-0.14-0.27-0.21
			c-0.1-0.08-0.21-0.13-0.26-0.21c-0.02-0.02-0.01-0.06-0.01-0.1c-0.09,0.05-0.13,0.14-0.19,0.21c0.04,0,0.09,0,0.13,0
			C287.69,393.382,287.801,393.671,288.041,393.702z M288.391,398.451c-0.05-0.029-0.03-0.119-0.1-0.13c0,0.061,0,0.101-0.01,0.13
			c-0.21,0.091-0.42,0.25-0.62,0.29c0.13-0.26,0.36-0.43,0.5-0.689c-0.27-0.021-0.58,0.12-0.86,0.09c0.18-0.16,0.38-0.29,0.6-0.41
			c0.04,0,0.07,0.08,0.1,0.03c-0.06-0.07-0.08-0.19-0.17-0.24c0,0.17-0.2,0.22-0.32,0.3c-0.13,0.09-0.23,0.19-0.34,0.23
			c-0.05,0.01-0.05-0.03-0.1-0.01c0.03,0.069,0.05,0.159,0.13,0.199c0.23-0.02,0.52-0.119,0.73-0.069c-0.13,0.21-0.32,0.37-0.45,0.6
			c0.05,0.061,0.05,0.16,0.13,0.19c-0.01-0.051,0.02-0.07,0.03-0.101C287.871,398.701,288.17,398.622,288.391,398.451z
			 M287.73,397.201c-0.01-0.119-0.04-0.209-0.09-0.29c-0.04,0.15-0.2,0.16-0.39,0.22c-0.18,0.05-0.34,0.12-0.49,0.06
			c0,0.11,0.04,0.19,0.07,0.271c0.16-0.221,0.52-0.23,0.83-0.301C287.69,397.161,287.69,397.201,287.73,397.201z M287.531,394.742
			c0.54-0.18,0.43-1.08-0.19-1.02C286.73,393.771,286.71,394.862,287.531,394.742z M287.541,395.691c0.01-0.17,0.1-0.31,0.07-0.46
			c-0.02-0.14-0.15-0.24-0.27-0.23c-0.29,0.01-0.28,0.49-0.51,0.49c-0.14-0.01-0.19-0.2-0.12-0.33c0.04-0.11,0.15-0.09,0.17-0.19
			c-0.07,0-0.14,0-0.2,0c-0.07,0.27-0.12,0.59,0.13,0.63c0.35,0.07,0.3-0.47,0.56-0.47c0.1,0,0.15,0.06,0.17,0.14
			c0.06,0.28-0.14,0.3-0.26,0.4C287.341,395.702,287.46,395.682,287.541,395.691z M287.611,396.602c0-0.27,0.01-0.59-0.21-0.64
			c-0.42-0.08-0.29,0.56-0.52,0.59c-0.17,0.03-0.24-0.18-0.19-0.33c0.03-0.08,0.13-0.09,0.12-0.17c-0.09,0-0.15,0.03-0.21,0.06
			c-0.06,0.33,0.17,0.74,0.44,0.51c0.11-0.1,0.07-0.46,0.24-0.53c0.16-0.07,0.3,0.07,0.26,0.35c-0.02,0.09-0.18,0.12-0.17,0.2
			C287.471,396.642,287.531,396.602,287.611,396.602z"/>
		<path fill="#4C0F1C" d="M326.001,398.651c0.06,0.101,0.08,0.24,0.1,0.36c-0.34,0.14-1.12,0.61-1.49,0.22
			c-0.109-0.109-0.13-0.26-0.189-0.43c-0.12,0.06-0.181,0.189-0.29,0.29c-0.601,0.52-1.891,0.35-2-0.58
			c-0.04-0.3,0.05-0.59,0.2-0.78c0.39-0.49,1.25-0.46,1.859-0.75c0.2-0.2,0.11-0.55-0.149-0.63c-0.57-0.18-1.16,0.22-1.28,0.59
			c-0.13-0.01-0.29-0.1-0.4-0.19c0.12-0.34,0.3-0.76,0.431-1.15c0.18,0,0.3,0.05,0.38,0.15c0.96-0.07,2.21-0.22,2.31,0.7
			c0.04,0.36-0.02,0.78-0.04,1.17c-0.01,0.31-0.08,0.97,0.15,1.06C325.711,398.731,325.881,398.651,326.001,398.651z
			 M324.291,397.932c0.01-0.12,0.029-0.271-0.04-0.37c-0.011,0-0.011,0-0.021,0c-0.37,0.18-0.99,0.15-0.96,0.68
			c0.01,0.36,0.44,0.5,0.75,0.301C324.171,398.432,324.271,398.191,324.291,397.932z"/>
		<path fill="#FFFFFF" d="M324.251,397.562c0.069,0.1,0.05,0.25,0.04,0.37c-0.021,0.26-0.12,0.5-0.271,0.61
			c-0.31,0.199-0.74,0.06-0.75-0.301c-0.03-0.529,0.59-0.5,0.96-0.68C324.24,397.562,324.24,397.562,324.251,397.562z"/>
		<path fill="#4C0F1C" d="M322.121,398.932c0.02,0.08,0.02,0.26-0.021,0.33c-0.49-0.021-1.07-0.03-1.54,0.01
			c-0.229-0.45-0.06-1.51-0.12-2.2c-0.02-0.31-0.149-0.59-0.53-0.5c-0.18,0.03-0.479,0.2-0.529,0.37c-0.061,0.21,0,0.61,0,0.95
			c0,0.54-0.021,1,0.45,1.04c-0.011,0.11,0.01,0.25-0.021,0.33c-0.6-0.021-1.42-0.04-2.04,0.01c-0.09,0-0.02-0.14-0.09-0.149
			c-0.31,0.06-0.66,0.329-1.07,0.25c-0.26-0.051-0.359-0.301-0.439-0.57c-0.15,0.1-0.24,0.28-0.42,0.39
			c-0.38,0.23-1.11,0.25-1.48-0.02c-0.13-0.09-0.18-0.21-0.31-0.3c-0.431,0.43-1.49,0.75-2.04,0.27c-0.55-0.47-0.181-1.77-0.3-2.73
			c-0.12-0.03-0.29-0.01-0.431-0.02c-0.03-0.09-0.03-0.27,0-0.36c0.65-0.1,1.05-0.45,1.22-1.03c0.011-0.02,0.021-0.04,0.04-0.05
			c0.131,0.01,0.301-0.01,0.41,0.02c0.04,0.26-0.069,0.63,0.011,0.88c0.189,0.01,0.439,0.03,0.68,0.01
			c0.13-0.01,0.28-0.07,0.359-0.04c0.12,0.03,0.101,0.18,0.171,0.27c-0.21,0.31-0.73,0.3-1.21,0.3c-0.051,0.3-0.03,0.7-0.03,1.1
			c0,0.37-0.061,0.83,0.12,1.03c0.27,0.32,0.8-0.05,0.899-0.24c0.061-0.1,0.04-0.199,0.08-0.3c0.19-0.47,0.66-0.649,1.25-0.77
			c0.391-0.07,0.99-0.13,0.851-0.63c-0.061-0.19-0.301-0.27-0.53-0.27c-0.521-0.02-0.851,0.31-1,0.63c-0.16-0.03-0.29-0.11-0.4-0.19
			c0.11-0.35,0.311-0.74,0.42-1.15c0.181,0,0.301,0.05,0.391,0.15c1.06-0.08,2.31-0.24,2.31,0.89c0.01,0.56-0.13,1.22-0.05,1.78
			c0.04,0.3,0.26,0.31,0.56,0.229c0.051,0.061,0.051,0.181,0.101,0.23c0.37-0.12,0.319-0.45,0.319-0.99c0-0.63,0.12-1.33-0.439-1.35
			c-0.021-0.09-0.021-0.26,0-0.35c0.56-0.04,0.96-0.23,1.26-0.53c0.101,0.01,0.23-0.02,0.311,0.01c0.05,0.2-0.021,0.38,0.02,0.55
			c0.2-0.07,0.36-0.23,0.561-0.34c0.76-0.44,1.72-0.2,1.779,0.74c0.03,0.3,0.021,0.68,0.021,1.04
			C321.671,398.262,321.57,398.882,322.121,398.932z M316.041,397.892c0.01-0.11,0.06-0.26-0.04-0.33
			c-0.03-0.01-0.051,0.021-0.061,0.03c-0.189,0.08-0.52,0.1-0.71,0.229c-0.359,0.24-0.22,0.9,0.33,0.811
			C315.9,398.571,316.011,398.262,316.041,397.892z"/>
		<path fill="#4C0F1C" d="M319.521,391.812c0.08,0.1,0.12,0.3,0.12,0.42c-0.2-0.02-0.17-0.24-0.4-0.24
			c-0.279,0-0.31,0.32-0.239,0.62c0.14,0.04,0.359-0.02,0.489,0.03c-0.02,0.17-0.27,0.13-0.46,0.15c-0.02,0.27-0.06,0.83-0.029,1.16
			c0.01,0.04,0.02,0.1,0.029,0.14c0.07,0.13,0.21,0.06,0.29,0.17c-0.22,0.05-0.58,0.01-0.819,0.02c0.06-0.12,0.189-0.09,0.22-0.26
			c0.04-0.31-0.03-0.92-0.021-1.21c-0.04-0.04-0.189,0.02-0.199-0.06c0.01-0.1,0.18-0.07,0.199-0.19c0.03-0.13-0.02-0.28,0-0.4
			c0.061-0.29,0.311-0.36,0.721-0.32C319.471,391.842,319.461,391.802,319.521,391.812z"/>
		<path fill="#4C0F1C" d="M318.501,393.332c0.05,0.49-0.271,1.01-0.82,1.02c-1.08,0.01-1.08-1.71-0.06-1.77
			C318.081,392.552,318.45,392.882,318.501,393.332z M317.641,394.182c0.73,0.04,0.73-1.52-0.02-1.43
			C317.001,392.822,317.021,394.142,317.641,394.182z"/>
		<path fill="#FFFFFF" d="M317.621,392.751c0.75-0.09,0.75,1.47,0.02,1.43C317.021,394.142,317.001,392.822,317.621,392.751z"/>
		<path fill="#4C0F1C" d="M316.251,392.622c0.01,0.22-0.12,0.43-0.21,0.63c-0.17,0.4-0.341,0.81-0.521,1.23
			c-0.149,0.35-0.3,0.77-0.82,0.7c-0.04-0.13-0.13-0.29-0.1-0.44c0.15-0.03,0.13,0.15,0.24,0.18c0.33,0.1,0.42-0.33,0.54-0.53
			c-0.351-0.45-0.41-1.19-0.771-1.64c-0.14,0.02-0.27,0.06-0.439,0.04c-0.03,0.22-0.061,0.82-0.03,1.11
			c0.01,0.13,0.06,0.24,0.19,0.25c0.149,0.01,0.18-0.17,0.31-0.12c-0.02,0.16-0.2,0.3-0.37,0.32c-0.66,0.08-0.35-0.96-0.42-1.54
			c-0.05-0.04-0.19,0.01-0.2-0.06c0-0.09,0.101-0.09,0.16-0.13c0.11-0.07,0.17-0.19,0.21-0.33c0.01-0.02,0.021-0.04,0.05-0.04
			c0.011,0,0.03,0,0.051,0c0.039,0.09,0,0.26,0.029,0.36c0.391,0.03,0.73-0.02,1.101,0.04c-0.011,0.11-0.19,0.06-0.19,0.19
			c0,0.16,0.12,0.39,0.2,0.62c0.08,0.22,0.149,0.44,0.229,0.57c0.12-0.12,0.17-0.34,0.271-0.59c0.08-0.17,0.27-0.47,0.22-0.63
			c-0.02-0.09-0.14-0.07-0.17-0.15C315.881,392.572,316.121,392.651,316.251,392.622z"/>
		<path fill="#FFFFFF" d="M316.001,397.562c0.1,0.07,0.05,0.22,0.04,0.33c-0.03,0.37-0.141,0.68-0.48,0.74
			c-0.55,0.09-0.689-0.57-0.33-0.811c0.19-0.13,0.521-0.149,0.71-0.229C315.95,397.582,315.971,397.552,316.001,397.562z"/>
		<path fill="#4C0F1C" d="M313.49,393.972c0.021,0.18,0.15,0.18,0.221,0.31c-0.21,0.01-0.561,0.03-0.721,0
			c0-0.12,0.15-0.08,0.2-0.19c0.04-0.11,0.05-0.93-0.02-1.09c-0.04-0.11-0.15-0.1-0.181-0.15c-0.01-0.1,0.11-0.08,0.17-0.1
			c0.101-0.04,0.16-0.12,0.23-0.17c0.03,0,0.06,0,0.09,0C313.541,392.941,313.44,393.612,313.49,393.972z"/>
		<path fill="#4C0F1C" d="M313.271,391.961c0.28-0.1,0.28,0.31,0.09,0.33C313.16,392.312,313.091,392.021,313.271,391.961z"/>
		<path fill="#4C0F1C" d="M312.94,393.771c0.04,0.49-0.49,0.68-1.02,0.52c-0.07,0-0.08,0.07-0.16,0.06
			c-0.061-0.15-0.07-0.35-0.09-0.55c0.21-0.03,0.18,0.19,0.31,0.29c0.19,0.14,0.68,0.11,0.67-0.22c0-0.08-0.05-0.17-0.109-0.21
			c-0.28-0.2-0.881-0.1-0.841-0.62c-0.159-0.09-0.229-0.28-0.439-0.12c-0.23,0.17-0.26,0.75-0.2,1.08
			c0.021,0.17,0.17,0.17,0.26,0.25c-0.04,0.09-0.14,0.03-0.22,0.03c-0.18-0.01-0.43,0.03-0.56-0.03c0.02-0.09,0.189-0.06,0.21-0.2
			c0.05-0.26,0.04-0.99-0.03-1.1c-0.05-0.08-0.18-0.04-0.17-0.16c0.21-0.03,0.31-0.17,0.51-0.21c0.021,0.05-0.01,0.15,0,0.27
			c0.15-0.05,0.271-0.35,0.57-0.26c0.029,0.09,0.04,0.2,0.06,0.3c0.101-0.05,0.08-0.11,0.141-0.17c0.14-0.13,0.34-0.17,0.54-0.16
			c0.13,0.01,0.3,0.07,0.409,0.02c0.07,0.11,0.091,0.33,0.091,0.46c-0.021,0-0.03,0-0.03,0.01c-0.15-0.01-0.11-0.12-0.19-0.2
			c-0.2-0.2-0.72-0.14-0.66,0.2c0.051,0.25,0.58,0.2,0.811,0.42C312.871,393.542,312.931,393.651,312.94,393.771z"/>
		<path fill="#4C0F1C" d="M311.461,398.911c0.02,0.08,0.02,0.261,0,0.341c-0.511,0-1.051-0.021-1.54,0.01
			c-0.181-0.36-0.101-0.92-0.101-1.53c0-0.38,0.03-0.83-0.09-1.02c-0.229-0.35-0.84-0.03-0.979,0.23c0.1,0.681-0.261,1.92,0.43,1.97
			c0.03,0.101,0.03,0.271-0.01,0.351c-0.65-0.03-1.45-0.01-2.061,0c-0.029-0.08-0.01-0.22-0.01-0.33c0.45-0.05,0.44-0.45,0.44-1.04
			c0-0.64,0.119-1.31-0.431-1.35c-0.02-0.09-0.02-0.26,0-0.35c0.29-0.03,0.5-0.07,0.71-0.16c0.2-0.09,0.34-0.24,0.511-0.34
			c0.06-0.04,0.25-0.06,0.35,0c0.05,0.16-0.04,0.38,0.01,0.55c0.431-0.24,0.69-0.56,1.29-0.58c0.65-0.02,1.01,0.37,1.05,1.01
			c0.03,0.581-0.04,1.24,0.011,1.8C311.07,398.741,311.19,398.861,311.461,398.911z"/>
		<path fill="#4C0F1C" d="M310.221,392.691c0.16,0.14,0.27,0.4,0.25,0.66c-0.35,0.05-0.811-0.01-1.16,0.03
			c-0.13,0.62,0.561,0.98,0.94,0.57c0.02-0.02,0.1-0.21,0.189-0.12s-0.149,0.33-0.229,0.39c-0.37,0.26-0.91,0.09-1.11-0.26
			c-0.33-0.58,0.01-1.49,0.76-1.41C310.001,392.562,310.141,392.632,310.221,392.691z M310.16,393.151
			c0.051-0.6-0.88-0.52-0.829,0.03C309.581,393.191,309.961,393.242,310.16,393.151z"/>
		<path fill="#FFFFFF" d="M309.331,393.182c-0.051-0.55,0.88-0.63,0.829-0.03C309.961,393.242,309.581,393.191,309.331,393.182z"/>
		<path fill="#4C0F1C" d="M308.561,392.662c0.08-0.08,0.36-0.03,0.47-0.04c-0.159,0.61-0.46,1.08-0.649,1.66c-0.08,0-0.16,0-0.23,0
			c-0.2-0.41-0.34-0.98-0.55-1.37c-0.02-0.03-0.04-0.08-0.06-0.1c-0.051-0.06-0.141-0.07-0.17-0.15c0.05-0.09,0.17-0.03,0.27-0.02
			c0.14,0,0.3-0.05,0.42,0c0.01,0.1-0.12,0.08-0.14,0.15c-0.05,0.15,0.109,0.42,0.17,0.58c0.08,0.21,0.149,0.4,0.229,0.52
			c0.11-0.1,0.16-0.3,0.24-0.52c0.07-0.17,0.24-0.42,0.19-0.58C308.73,392.711,308.621,392.722,308.561,392.662z"/>
		<path fill="#4C0F1C" d="M307.48,394.231c-0.109,0.07-0.29,0.02-0.46,0.03c-0.19,0.01-0.43,0-0.67,0c-0.16-0.45,0.18-1.46-0.33-1.5
			c-0.25-0.01-0.38,0.17-0.52,0.29c-0.01,0.24-0.02,0.49-0.02,0.74c0,0.08,0,0.19,0.03,0.27c0.04,0.1,0.14,0.08,0.19,0.19
			c-0.09,0.04-0.29,0.01-0.45,0.01c-0.1,0.01-0.23,0.06-0.26-0.04c0.04-0.05,0.15-0.05,0.19-0.13c0.08-0.14,0.05-0.8,0.03-1.01
			c-0.02-0.18-0.11-0.18-0.22-0.26c0.03-0.09,0.15-0.08,0.22-0.11c0.08-0.04,0.15-0.09,0.2-0.16c0.01,0,0.02,0,0.03,0
			c0.1,0.03-0.01,0.19,0.04,0.27c0.27-0.21,0.8-0.44,1.03-0.08c0.18,0.28,0.01,0.86,0.08,1.26c0.05,0.25,0.38,0.23,0.41-0.07
			c0.01-0.26,0.01-0.84-0.03-0.95c-0.05-0.11-0.16-0.07-0.21-0.19c0.2-0.04,0.32-0.16,0.479-0.24c0.061,0.16,0.04,0.45,0.04,0.75
			c0,0.27-0.05,0.62,0.03,0.78C307.36,394.162,307.461,394.142,307.48,394.231z"/>
		<path fill="#4C0F1C" d="M307.23,391.941c0.13,0.1,0.05,0.34-0.109,0.34C306.9,392.282,306.881,391.832,307.23,391.941z"/>
		<path fill="#4C0F1C" d="M306.881,396.521c0.18,0.32,0.27,0.72,0.229,1.21c-0.06,0.75-0.6,1.3-1.12,1.5
			c-1.03,0.391-2.13-0.09-2.49-0.81c-0.37-0.721-0.18-1.73,0.28-2.2c0.28-0.28,0.72-0.49,1.3-0.53
			C305.931,395.622,306.601,396.042,306.881,396.521z M305.631,398.642c0.28-0.36,0.33-1.47,0.16-1.99c-0.1-0.26-0.3-0.47-0.61-0.44
			c-0.14,0.01-0.22,0.04-0.29,0.1c-0.42,0.35-0.52,2.2,0.09,2.49C305.25,398.922,305.511,398.792,305.631,398.642z"/>
		<path fill="#FFFFFF" d="M305.791,396.651c0.17,0.521,0.12,1.63-0.16,1.99c-0.12,0.15-0.38,0.28-0.65,0.16
			c-0.61-0.29-0.51-2.14-0.09-2.49c0.07-0.06,0.15-0.09,0.29-0.1C305.491,396.182,305.69,396.392,305.791,396.651z"/>
		<path fill="#4C0F1C" d="M304.451,392.062c0.18-0.02,0.5-0.04,0.64,0c-0.11,0.14-0.22,0.1-0.24,0.32c-0.05,0.39,0.05,0.93,0,1.32
			c-0.08,0.68-1.17,0.84-1.57,0.4c-0.31-0.33-0.11-1.11-0.17-1.71c-0.01-0.04-0.02-0.1-0.03-0.13c-0.05-0.1-0.16-0.07-0.22-0.19
			c0.23-0.02,0.55-0.02,0.78,0c-0.06,0.12-0.17,0.09-0.22,0.19c-0.09,0.2-0.05,1.04-0.01,1.4c0.07,0.71,1.21,0.65,1.28-0.03
			c0.03-0.29,0.05-1.11-0.03-1.37C304.631,392.142,304.511,392.202,304.451,392.062z"/>
		<path fill="#4C0F1C" d="M303.521,398.911c0.03,0.101,0.02,0.261-0.01,0.351c-0.69-0.021-1.61-0.04-2.32,0.01
			c-0.02-0.09-0.02-0.27,0-0.36c0.33-0.01,0.6-0.069,0.64-0.43c0.04-0.399-0.03-0.91-0.06-1.399c-0.04-0.49-0.04-0.98-0.1-1.351
			c-0.26,0.55-0.43,1.15-0.62,1.74c-0.2,0.6-0.37,1.21-0.56,1.8c-0.2-0.01-0.4-0.02-0.59,0c-0.39-1.21-0.71-2.42-1.14-3.57
			c-0.08,0.36-0.08,0.88-0.12,1.4c-0.03,0.5-0.11,1.03-0.07,1.42c0.03,0.271,0.25,0.41,0.59,0.38c0.05,0.101,0.03,0.271,0,0.37
			c-0.43-0.05-0.93-0.02-1.37,0c0.07-0.83,0.19-1.93,0.26-2.88c0.05-0.57,0.19-1.38-0.41-1.39c-0.01-0.12-0.04-0.28,0.01-0.36
			c0.67,0.03,1.37,0.02,2.03-0.02c0.26,0.81,0.49,1.63,0.78,2.41c0.11-0.169,0.18-0.38,0.24-0.58c0.2-0.6,0.37-1.24,0.59-1.83
			c0.67,0.05,1.38,0.03,2.05,0c0,0.11,0,0.22,0,0.33c-0.28,0.04-0.43,0.2-0.45,0.57c-0.01,0.25,0.03,0.53,0.04,0.82
			c0.03,0.47,0.08,1.109,0.11,1.59C303.061,398.462,303.021,398.911,303.521,398.911z"/>
		<path fill="#4C0F1C" d="M302.031,392.691c0.16,0.14,0.25,0.41,0.24,0.65c-0.32,0.09-0.83-0.03-1.15,0.06
			c-0.11,0.63,0.58,0.96,0.95,0.53c0.05-0.05,0.07-0.15,0.14-0.11c0.15,0.06-0.13,0.35-0.2,0.4c-0.5,0.36-1.16-0.08-1.22-0.61
			c-0.05-0.49,0.18-1,0.68-1.06C301.69,392.521,301.911,392.592,302.031,392.691z M301.98,393.171c0.06-0.62-0.89-0.54-0.85,0.01
			C301.391,393.202,301.75,393.211,301.98,393.171z"/>
		<path fill="#FFFFFF" d="M301.131,393.182c-0.04-0.55,0.91-0.63,0.85-0.01C301.75,393.211,301.391,393.202,301.131,393.182z"/>
		<path fill="#4C0F1C" d="M300.801,394.231c-0.07,0.09-0.34,0.04-0.46,0.03c-0.19-0.38,0.18-1.28-0.2-1.45
			c-0.25-0.11-0.53,0.1-0.66,0.26c0.06,0.3-0.09,0.79,0.03,1.02c0.05,0.1,0.13,0.06,0.17,0.16c-0.05,0.09-0.2,0.03-0.3,0.03
			c-0.15,0-0.3,0.05-0.41-0.02c0-0.08,0.15-0.08,0.19-0.16c0.09-0.15,0.03-0.56,0.03-0.85c0-0.34,0.05-0.67-0.01-0.86
			c-0.07-0.2-0.41-0.19-0.61-0.16c-0.02,0.24-0.01,0.58-0.01,0.94c0,0.31-0.07,0.74,0.03,0.92c0.04,0.09,0.17,0.07,0.2,0.16
			c-0.11,0.07-0.58,0.02-0.77,0.01c0.02-0.11,0.16-0.08,0.21-0.17c0.09-0.18,0.02-0.6,0.02-0.91c0-0.34,0-0.68,0-0.93
			c-0.18-0.06-0.4-0.05-0.53,0.04c-0.1,0.06-0.11,0.22-0.24,0.22c-0.04-0.11,0.02-0.35,0.04-0.49c0.55,0.02,1.54,0.18,1.87-0.18
			c0.02,0,0.03,0,0.05,0c0.08,0.1,0.03,0.26,0.02,0.39c0,0.19,0.02,0.4,0.02,0.58c0.2-0.09,0.52-0.36,0.86-0.22
			c0.1,0.04,0.22,0.21,0.25,0.33c0.06,0.33-0.11,0.88,0.03,1.16C300.65,394.151,300.75,394.171,300.801,394.231z"/>
		<path fill="#4C0F1C" d="M294.841,398.491c0.04-0.05,0.11-0.05,0.16-0.08c-0.01-0.06,0.02-0.079,0.01-0.14
			c-0.08-0.05-0.28-0.06-0.25,0.04c0.08-0.02,0.19-0.09,0.21,0.03C294.911,398.372,294.841,398.432,294.841,398.491z
			 M292.67,398.052c-0.04,0-0.13,0.05-0.19,0.06c0.16-0.12,0.32-0.21,0.6-0.18c0.06-0.021,0.07-0.09,0.05-0.15
			c0.09-0.04,0.2-0.08,0.3-0.13c0.15-0.08,0.32-0.2,0.48-0.229c0.35-0.07,0.68,0.08,1.08,0.04c0,0.06-0.04,0.08-0.06,0.109
			c0.03,0.051,0.05,0.011,0.1,0.03c0.04-0.03,0.06-0.08,0.09-0.13c0.09,0,0.16,0.01,0.23,0.03c0-0.061-0.01-0.101-0.08-0.08
			c-0.01-0.061,0.06-0.03,0.08-0.061c-0.06-0.05-0.11,0.03-0.16,0.04c-0.35-0.029-0.73-0.029-1.07-0.069
			c-0.04,0.01-0.02-0.051-0.06-0.04c-0.24,0.04-0.39,0.17-0.62,0.239c-0.06-0.319,0.02-0.77-0.05-1.14c0.07,0.01,0.1-0.03,0.16,0
			c0,0.14,0.05,0.22,0.1,0.31c0.21,0.02,0.4,0.02,0.59,0.02c0.06,0.01,0.12,0.03,0.18,0.02c0.17-0.04,0.3-0.31,0.48-0.36
			c-0.02,0.07-0.07,0.11-0.12,0.16c0.12-0.05,0.16-0.17,0.28-0.22c-0.05-0.03-0.19-0.02-0.2-0.13c-0.05,0.1-0.17,0.02-0.23,0.05
			c-0.01-0.08,0.05-0.1,0.07-0.15c-0.01-0.01-0.02-0.02-0.02-0.04c-0.07,0-0.1,0.04-0.17,0.06c-0.02-0.07,0.06-0.14,0.1-0.19
			c0.06,0.09,0.18,0.13,0.27,0.2c0.06-0.06,0.09,0,0.18-0.04c0,0.06-0.1,0.04-0.09,0.11c0.04,0.01,0.05-0.01,0.12,0.02
			c0.03-0.02,0.06-0.06,0.05-0.12c0.06-0.03,0.13,0,0.19,0c-0.03,0.07-0.1,0.1-0.09,0.17c-0.06,0.02-0.05-0.04-0.1-0.04
			c-0.07,0.06,0.05,0.14,0.15,0.12c0,0.05-0.03,0.06-0.06,0.08c-0.06,0.01-0.04-0.08-0.1-0.07c-0.07,0.02-0.1,0.09-0.12,0.16
			c-0.03-0.01-0.05-0.03-0.08,0c-0.28,0.22-0.51,0.48-0.78,0.7c0.2,0.069,0.5,0.06,0.76,0.08c0.2,0.01,0.41,0.029,0.54,0.01
			c0.04-0.08,0.18-0.24,0.27-0.141c-0.02,0.061-0.12,0-0.14,0.08c0.05,0.101,0.19,0,0.18-0.1c0.04-0.03,0.1-0.02,0.13-0.06
			c-0.04-0.07,0.06-0.101,0.03-0.15c-0.09,0.05-0.44,0.04-0.5-0.08c0.02-0.07,0.12-0.07,0.13-0.17c-0.02-0.06-0.08-0.07-0.13-0.08
			c-0.01-0.04,0.02-0.04,0.01-0.08c-0.07,0.01-0.19,0.07-0.31,0.03c0-0.04-0.04-0.08,0-0.11c0.08-0.01,0.09,0.05,0.17,0.05
			c0.08-0.06,0.2-0.1,0.24-0.2c-0.02-0.06-0.12-0.03-0.18-0.05c0-0.1,0.09-0.11,0.14-0.15c0.02,0.06-0.03,0.06-0.03,0.1
			c0.07-0.06,0.2-0.06,0.27-0.11c0.11-0.01,0.19,0.04,0.22-0.05c0.04,0.02,0.04,0.08,0.09,0.09c0.05-0.01-0.01-0.13,0.07-0.12
			c0.02,0.34-0.07,0.69-0.12,1c-0.02,0-0.01,0.05-0.05,0.04c0.04,0.09-0.02,0.319-0.12,0.279c0,0.04,0.05,0.04,0.06,0.08
			c-0.02,0.101-0.1,0.15-0.1,0.26c-0.1-0.01-0.18-0.029-0.26-0.01c0,0.021,0,0.05,0,0.08c0.07-0.04,0.16-0.05,0.24-0.01
			c-0.02,0.09-0.06,0.17-0.1,0.26c-0.03,0-0.07,0-0.08,0.01c-0.02,0.051,0.03,0.03,0.05,0.03c-0.1,0.24-0.23,0.41-0.33,0.62
			c-0.07,0.02-0.16,0.02-0.21,0.06c0.03,0.03,0.09,0.03,0.1,0.08c-0.18,0.32-0.43,0.58-0.71,0.801c0-0.051,0.01-0.12-0.01-0.15
			c-0.07,0.03,0,0.09-0.02,0.16c-0.07,0.109-0.17,0.189-0.3,0.24c-0.04-0.341,0-0.73,0-1.061c0-0.09,0-0.189-0.06-0.26
			c0.02-0.05,0.06-0.08,0.05-0.17c0-0.03-0.06-0.01-0.08-0.021c0.02-0.04,0.08-0.04,0.09-0.08c-0.02-0.05-0.01-0.109-0.01-0.18
			c-0.08-0.01-0.08,0.04-0.08,0.11c-0.03,0,0.02-0.09-0.04-0.061c-0.04,0.03,0.01,0.141-0.03,0.17c-0.05-0.04,0.01-0.1-0.03-0.14
			c-0.05,0.03,0,0.09-0.03,0.15c-0.06-0.021,0-0.11-0.05-0.12c-0.04,0.02-0.01,0.1-0.02,0.149c-0.07,0.011,0.01-0.12-0.04-0.13
			c-0.06,0.01-0.01,0.12-0.03,0.181c-0.05-0.011-0.02-0.101-0.03-0.15c-0.07-0.01-0.03,0.09-0.04,0.15
			c-0.04,0.029,0.01-0.141-0.04-0.131c-0.08,0.021,0.02,0.12-0.03,0.17c-0.04-0.02,0-0.119-0.03-0.14c-0.05,0-0.02,0.09-0.03,0.14
			c-0.06,0.011-0.01-0.1-0.04-0.119c-0.06,0.029-0.02,0.149-0.03,0.22c0.16-0.061,0.31-0.13,0.49-0.17
			c-0.14,0.1-0.33,0.14-0.49,0.21c0,0.05,0,0.09,0,0.13c0.19-0.01,0.31-0.16,0.49-0.14c0,0.069-0.09,0.05-0.15,0.06
			c-0.11,0.05-0.24,0.09-0.33,0.17c0.01,0.061-0.02,0.09-0.01,0.16c-0.02,0.01-0.04,0.02-0.08,0.01c0.01,0.11,0.04,0.28-0.05,0.33
			c0,0.04,0.04,0.05,0.07,0.061c0,0.34-0.02,0.64-0.02,0.949c-0.05,0.011-0.07,0.051-0.14,0.051c0.03-0.46-0.05-1.03,0.04-1.421
			c0.02-0.01,0.06-0.01,0.09-0.01c0.01-0.069,0.02-0.14-0.03-0.17c0.1-0.14,0-0.52,0.04-0.68c0-0.03-0.03-0.03-0.04-0.061
			c-0.07,0.101-0.26,0.08-0.24,0.261c0.09,0.04,0.13-0.051,0.23-0.04c0,0.029,0,0.069,0,0.1c-0.04,0.03-0.1,0.021-0.13,0.061
			c0.01,0.05,0.05,0,0.1,0.01c0.01,0.1-0.12,0.05-0.09,0.17c-0.09,0-0.1,0.08-0.17,0.1c0-0.05,0-0.1,0-0.149
			c-0.08,0.05-0.02,0.21-0.04,0.34c0,0.03,0.06,0.01,0.08,0.02c-0.05,0.03-0.14,0.08-0.08,0.17c0.07,0,0.06-0.08,0.15-0.06
			c-0.02,0.07,0.02,0.32-0.05,0.39c0,0.04,0.04,0.04,0.05,0.07c-0.01,0.31-0.01,0.6-0.01,0.94c-0.05,0-0.09,0.05-0.13,0.029
			c0-0.45,0-0.8,0-1.24c-0.18-0.159-0.04-0.489-0.1-0.779c-0.1,0.04,0.01,0.2-0.12,0.22c0,0.03,0,0.07,0,0.11
			c-0.03,0.04,0.02-0.11-0.04-0.101c-0.03,0.021,0,0.09-0.01,0.13c-0.07,0.021,0-0.1-0.05-0.1c-0.03,0.02,0,0.09-0.01,0.13
			c-0.07,0.021,0-0.1-0.04-0.1c-0.06-0.011-0.02,0.08-0.03,0.109c-0.03,0.051-0.01-0.069-0.02-0.1c-0.06,0-0.04,0.05-0.1,0.02
			c0,0.051,0,0.091,0,0.141c-0.04-0.01,0-0.07-0.03-0.13c-0.15-0.011-0.23,0-0.28,0.13c0,0.01,0.01,0.03,0.01,0.04
			c0.09,0.02,0.11-0.04,0.19-0.04c0.05-0.01,0.01,0.08,0.04,0.09c0.04-0.03,0.1-0.03,0.14-0.06c0.02,0.09-0.21,0.06-0.28,0.1
			c0,0.06,0,0.12,0,0.17c-0.06,0.01-0.1,0.05-0.12,0.09c-0.06-0.03,0.01-0.109-0.04-0.13c-0.04,0.49,0.01,1.15-0.03,1.6
			c-0.03,0-0.05,0-0.07,0c-0.01-0.06,0.02-0.159-0.05-0.159c-0.08,0.02-0.01,0.09-0.03,0.159c-0.05,0.051-0.17,0.04-0.23,0.03
			c-0.03-0.05,0.05-0.07,0.05-0.13c0.05,0.05,0.12,0,0.14-0.06c-0.03-0.08-0.1,0.09-0.16,0c-0.06,0.09-0.05,0.159-0.14,0.22
			c-0.38-0.021-0.6,0-0.95-0.05c0.01-0.08-0.11-0.03-0.07-0.141c0.03,0,0.01,0.04,0.04,0.04c0.06-0.069,0.03-0.149,0.04-0.279
			c-0.04-0.04-0.05-0.021-0.13-0.021c-0.01-0.04-0.05-0.06-0.04-0.13c0.07,0,0.06,0.01,0.12,0c0,0.02-0.01,0.06,0.01,0.06
			c0.05,0.011,0.02-0.069,0.03-0.1c-0.04-0.05-0.13,0.03-0.15-0.03c0.01-0.09,0.17-0.029,0.19-0.1c-0.05-0.09-0.02-0.2-0.06-0.28
			c0.1-0.189-0.05-0.64,0.09-0.79c-0.04,0.38,0.01,0.82,0.02,1.17c0.06,0.011,0.08,0,0.11,0.07c0.07-0.01-0.01-0.09,0.03-0.11
			c0.01-0.04-0.08,0.011-0.07-0.029c0-0.03,0-0.051,0-0.08c0.04,0,0.08,0,0.13,0c0.03,0.01,0.02,0.06,0.04,0.08
			c0.05-0.051,0-0.141,0.06-0.19c0.05-0.01,0.07,0.021,0.11,0.01c0.01,0.09-0.04,0.12-0.07,0.181c0.07,0.06,0.15-0.04,0.22,0.029
			c-0.07,0.08,0.08,0.101,0,0.2c0.08-0.07,0.18-0.14,0.13-0.229c-0.08-0.011-0.19-0.051-0.25-0.12c0.05-0.05,0.14-0.061,0.23-0.07
			c-0.05-0.11-0.18,0.01-0.26,0.01c-0.01-0.06,0.05-0.04,0.05-0.1c-0.06,0.03-0.14,0.07-0.22,0.03c-0.07,0.01-0.12,0.109-0.17,0.09
			c0.01-0.09,0.03-0.11,0-0.2c0.03-0.03,0.03-0.021,0.08-0.021c0-0.05-0.07-0.029-0.08-0.069c-0.01-0.28,0.03-0.49,0-0.73
			c0.03-0.029,0.1-0.01,0.1-0.08c-0.03-0.04-0.07,0.021-0.1-0.01c0-0.85,0.05-1.93,0-2.82c-0.06-0.01-0.03,0.06-0.06,0.08
			c-0.1,0.06-0.19,0.13-0.27,0.21c-0.06,0.53-0.02,1.16-0.03,1.74c0.06-0.01,0.03-0.1,0.1-0.09c-0.03,0.12-0.12,0.38-0.13,0.52
			c0.12-0.039,0.07-0.239,0.13-0.35c0.09,0.021,0.05,0.18,0.04,0.26c0.17,0.011,0.01-0.319,0.16-0.34c-0.03,0.23,0.03,0.57,0,0.79
			c-0.01,0.04-0.01,0.12-0.07,0.13c-0.02-0.14,0.02-0.42-0.03-0.52c-0.13,0.069,0.07,0.56-0.15,0.59c0.01-0.17-0.01-0.37,0-0.5
			c-0.09-0.01-0.06,0.1-0.07,0.14c-0.02,0.33,0.03,0.851,0,1.221c0,0.079,0.02,0.189-0.03,0.26c0.1,0.06,0,0.14,0.08,0.22
			c-0.11,0.07-0.01,0.25-0.08,0.36c-0.03,0-0.05-0.021-0.1-0.011c-0.03-0.05,0.06-0.06,0.08-0.1c-0.02-0.03-0.09-0.01-0.12-0.03
			c-0.06,0.011,0.01,0.07-0.03,0.101c-0.08-0.03-0.2-0.01-0.21-0.101c-0.08,0-0.11,0.021-0.18,0c-0.03-0.26-0.01-0.51-0.03-0.72
			c-0.1,0.05-0.22,0.08-0.31,0.14c0,0.04,0,0.08,0,0.12c0.08,0.011,0.09-0.06,0.17-0.05c-0.04,0.05-0.13,0.05-0.17,0.09
			c0.01,0.11,0,0.16-0.02,0.261c-0.15-0.101,0.04-0.33-0.08-0.45c0,0.13-0.16,0.17-0.16,0.33c-0.11,0.01-0.03-0.101-0.09-0.16
			c-0.06,0-0.04,0.09-0.1,0.09c0-0.06-0.02-0.1-0.03-0.16c-0.2,0.01-0.34-0.06-0.44-0.16c0.22-0.17,0.57-0.22,0.79-0.399
			c-0.07-0.061-0.16,0.09-0.19-0.011c-0.22,0.04-0.48,0.221-0.71,0.261c-0.04,0-0.1,0.01-0.14-0.03c0.19-0.21,0.43-0.36,0.63-0.55
			c-0.04-0.07,0.07-0.181,0.12-0.16c0.01,0.05-0.04,0.04-0.04,0.09c0,0.03,0.06,0,0.08,0.01c0.07-0.04,0.08-0.149,0.07-0.27
			c0.03,0,0.05,0,0.08,0c-0.01-0.13,0.05-0.21,0.05-0.33c0.04,0.07-0.05,0.189,0.03,0.24c-0.03,0.04-0.06,0.08-0.06,0.16
			c0.03,0.039,0.04-0.051,0.09-0.03c0.05,0.17-0.06,0.38,0.03,0.52c0.07-0.2-0.01-0.569,0.04-0.79c0.12,0,0.13,0.181,0.15,0.24
			c0.13-0.04,0.44,0,0.57,0c-0.19,0.22-0.54,0.35-0.69,0.58c0.18-0.05,0.54,0.01,0.74-0.06c0.02,0.05,0,0.09-0.03,0.119
			c0.01,0.021,0.05,0.021,0.06,0.051c-0.04,0.27,0.02,0.64-0.05,0.949c0.07,0.011,0.14,0.011,0.16-0.02
			c0.01-0.05-0.08-0.06-0.04-0.08c0-0.07,0.04,0.021,0.07,0c0.01-0.06-0.07-0.05-0.1-0.07c0-0.05,0-0.09,0-0.14
			c0.04,0,0.08,0,0.1-0.02c0-0.03-0.06,0-0.09-0.011c-0.03-0.359,0.01-0.689,0-1.04c0.02-0.02,0.07,0,0.08-0.04
			c-0.01-0.029-0.07-0.01-0.08-0.029c0.02-0.92,0.01-1.801,0-2.72c0-0.13-0.02-0.17-0.1-0.29c0.01-0.05,0.08-0.04,0.09-0.09
			c0.05-0.44,0.02-1.12,0.03-1.57c-0.05-0.06-0.09-0.12-0.12-0.2c0.01-0.06,0.1-0.04,0.13-0.08c-0.01-0.23,0-0.37-0.01-0.54
			c0.08,0,0.18-0.07,0.27-0.03c0.02,0.07-0.09,0.06-0.04,0.12c0.12,0.06,0.13-0.11,0.2-0.14c0.02,0.09,0.01,0.12-0.04,0.17
			c0.03,0.01,0.15-0.01,0.18-0.04c-0.11-0.16-0.04-0.38-0.1-0.52c0.11-0.08,0.27-0.03,0.41-0.02c-0.08-0.2-0.11-0.36-0.05-0.63
			c0.07-0.29,0.16-0.65,0.23-0.97c0.05-0.21,0.15-0.42,0.18-0.62c0.01-0.12-0.04-0.24,0.05-0.35c-0.03,0.23,0.08,0.39,0.15,0.54
			c0.2,0.45,0.35,0.93,0.56,1.37c0.04,0.03,0.08,0.04,0.11,0.07c0.04,0,0.05-0.02,0.06-0.04c0.03,0.04,0,0.15,0.09,0.13
			c-0.01,0.02-0.02,0.03-0.04,0.03c0.14,0.14,0.05,0.41,0.01,0.59c0.07,0.06,0.3-0.04,0.37,0.06c0,0.2,0.01,0.33,0,0.53
			c0.02,0.04,0.07,0.06,0.12,0.07c0,0.1-0.08,0.12-0.12,0.19c0.05,0.51-0.02,1.25,0.03,1.68c0,0.04,0.04,0.04,0.06,0.06
			c0,0.09-0.06,0.11-0.1,0.16c0.05,0.21-0.07,0.48,0,0.62c-0.02,0.06-0.12,0.05-0.07,0.14c-0.08-0.02-0.13,0-0.2-0.03
			c-0.03-0.06,0-0.1-0.02-0.16c-0.09,0.05-0.06,0.2-0.14,0.25c-0.01,0.05,0.01,0.12-0.02,0.14c-0.14-0.15,0.05-0.39-0.1-0.52
			c-0.06,0.01-0.06,0.08-0.1,0.11c0.08,0.15-0.08,0.37-0.1,0.57c-0.09-0.011-0.04-0.18-0.1-0.23c-0.06,0.16-0.11,0.311-0.16,0.48
			c0.01,0.02,0.03,0.02,0.03,0.04c0.08,0.02,0.08-0.051,0.16-0.03c0,0.07-0.04,0.109-0.03,0.189c0.01,0.03,0.08-0.01,0.06,0.061
			c0.04-0.021,0.08-0.08,0.13-0.03c-0.12,0.101-0.14,0.37-0.19,0.5c0.17,0,0.07-0.27,0.17-0.35c0.09,0.029,0.03,0.189,0.03,0.26
			c0.18,0,0.05-0.32,0.2-0.36c0.05,0.101-0.01,0.221,0.02,0.311c-0.06,0.04-0.13,0.08-0.2,0.109c0.01,0.091-0.03,0.12-0.09,0.131
			c-0.05,0.02-0.01-0.051-0.04-0.04c-0.1,0.01-0.01,0.119-0.1,0.14c0.08,0.03,0.03,0.16,0.04,0.229c-0.15-0.04-0.09-0.29-0.09-0.46
			c0-0.189,0.01-0.39-0.01-0.529c-0.1,0.279,0.03,0.71-0.06,1.04c-0.11,0.029-0.18,0.1-0.27,0.149c0.02,0.061,0.06,0,0.08,0.061
			c0.06-0.021,0.11-0.04,0.16-0.07c0.01-0.03-0.06,0.01-0.04-0.04c0.09-0.04,0.21,0.03,0.3-0.02c0.02-0.04,0.01-0.12,0.02-0.181
			c0.23-0.109,0.51-0.18,0.69-0.35c-0.23-0.021-0.45,0.2-0.71,0.24C292.351,398.182,292.541,398.151,292.67,398.052z
			 M292.221,392.441c0-0.04,0.03-0.02,0.06-0.02c-0.02-0.06-0.04-0.11-0.04-0.17c-0.05-0.02-0.05,0.02-0.08,0.03
			C292.19,392.352,292.17,392.392,292.221,392.441z M291.601,392.981c0-0.14,0.07-0.3-0.01-0.39
			C291.561,392.671,291.561,392.852,291.601,392.981z M296.021,396.421c0.02-0.06,0.04-0.13,0.05-0.21
			c-0.02-0.01-0.03-0.02-0.03-0.03c-0.07-0.01-0.09,0.03-0.13,0.04c-0.02-0.05-0.05-0.08-0.12-0.09c0,0.05-0.04,0.05-0.03,0.11
			c0.02,0.02,0.07,0.02,0.09,0.04c0,0.03-0.07,0.01-0.06,0.06c0.01,0.03,0.05,0.05,0.1,0.04c0.03-0.05,0.06-0.09,0.09-0.13
			c0.02,0.01,0.03,0.02,0.04,0.03c0,0.08-0.11,0.07-0.11,0.16C295.96,396.452,295.971,396.412,296.021,396.421z M295.911,396.542
			c-0.01-0.02-0.03-0.04-0.05-0.05c-0.02,0.1-0.16,0.07-0.18,0.16C295.791,396.651,295.881,396.632,295.911,396.542z
			 M295.821,397.271c0-0.01,0.01-0.02,0.03-0.01c0-0.04,0-0.08-0.04-0.07C295.791,397.201,295.781,397.271,295.821,397.271z
			 M295.621,397.472C295.781,397.542,295.67,397.332,295.621,397.472L295.621,397.472z M295.681,396.362
			c-0.08-0.03-0.17,0.03-0.19,0.09c0.06-0.01,0.05,0.05,0.1,0.06c0.06,0,0.07-0.06,0.03-0.09
			C295.67,396.432,295.67,396.401,295.681,396.362z M295.591,396.852c0.01-0.04-0.03-0.04-0.07-0.04
			C295.5,396.872,295.561,396.882,295.591,396.852z M295.491,397.552c0.04,0,0.08,0,0.07-0.05c-0.03,0.01-0.03-0.011-0.06-0.011
			C295.5,397.512,295.48,397.521,295.491,397.552z M295.531,397.951c0.01-0.079,0.05-0.109,0.09-0.149
			c-0.05-0.04-0.21-0.03-0.26-0.021c-0.02,0.061,0.09-0.01,0.07,0.051c-0.03,0.05-0.17-0.021-0.17,0.06
			C295.361,397.901,295.42,397.932,295.531,397.951z M295.4,397.722c0.1-0.16-0.1-0.21-0.1-0.03
			C295.331,397.731,295.351,397.731,295.4,397.722z M295.4,398.372c0.06-0.101-0.18-0.181-0.17-0.03
			C295.321,398.312,295.341,398.342,295.4,398.372z M295.361,398.382c-0.09-0.03-0.17-0.01-0.14,0.12
			C295.301,398.502,295.361,398.472,295.361,398.382z M295.241,397.981c-0.06-0.04-0.17-0.02-0.14,0.08
			C295.17,398.052,295.21,398.021,295.241,397.981z M295.23,397.622c-0.06-0.061-0.13-0.021-0.17,0.039
			C295.101,397.722,295.21,397.672,295.23,397.622z M295.19,398.271c-0.04-0.03-0.13-0.02-0.12,0.05
			C295.121,398.321,295.19,398.321,295.19,398.271z M295.141,397.781c-0.03-0.01-0.07-0.01-0.08,0.011c0,0.05-0.02,0.13,0.04,0.119
			C295.111,397.852,295.121,397.832,295.141,397.781z M295.011,398.502c0.04,0.01,0.13,0.05,0.15,0c-0.06-0.021-0.06-0.08-0.13-0.08
			C295.021,398.441,295.011,398.462,295.011,398.502z M294.841,398.372c-0.03,0-0.06,0-0.08,0c-0.01,0.02-0.03,0.029-0.03,0.05
			C294.761,398.451,294.821,398.401,294.841,398.372z M294.571,396.742c0.04,0,0.05-0.03,0.07-0.06
			C294.591,396.682,294.571,396.702,294.571,396.742z M294.471,399.122c-0.01-0.29,0.03-0.561-0.03-0.83
			C294.451,398.592,294.4,398.842,294.471,399.122z M294.451,398.241c0.01-0.01,0.04-0.09-0.01-0.069
			C294.431,398.201,294.42,398.212,294.451,398.241z M294.44,399.361c0.08-0.02,0.02-0.2,0.01-0.229
			C294.44,399.201,294.44,399.262,294.44,399.361z M294.061,397.241c0.11-0.159,0.3-0.25,0.41-0.41c-0.21,0.1-0.33,0.28-0.51,0.41
			C293.98,397.281,294.021,397.222,294.061,397.241z M294.111,397.762c-0.02,0-0.02-0.021-0.05-0.01
			c-0.17,0.109-0.48,0.13-0.57,0.33c0.12-0.011,0.22-0.08,0.33-0.131C293.92,397.911,294.081,397.892,294.111,397.762z
			 M293.321,397.911c0.23-0.109,0.5-0.189,0.69-0.35c-0.29,0.021-0.52,0.22-0.8,0.3c0.02,0.13-0.12,0.09-0.11,0.2
			c0.1,0,0.14-0.06,0.23-0.08C293.341,397.941,293.301,397.951,293.321,397.911z M293.011,398.241c-0.01-0.01-0.01-0.02-0.01-0.029
			c-0.21,0.06-0.38,0.17-0.58,0.239c0-0.05-0.04-0.029-0.07-0.029c-0.03,0.04-0.01,0.109-0.01,0.16
			c-0.06,0.04-0.15,0.029-0.15,0.119c0.12-0.029,0.26-0.04,0.29-0.159C292.65,398.432,292.92,398.422,293.011,398.241z
			 M292.71,398.042c0.05,0,0.13-0.04,0.1-0.061C292.781,398.002,292.73,398.002,292.71,398.042z M292.411,394.691
			c0-0.12,0.03-0.26-0.03-0.33c-0.12,0.17-0.23,0.46-0.39,0.62c-0.18-0.18-0.27-0.47-0.46-0.65c-0.01,0.19-0.01,0.44-0.01,0.7
			c0,0.11-0.05,0.29,0.07,0.31c0.02-0.25-0.02-0.56,0.01-0.79c0.15,0.17,0.24,0.42,0.39,0.59c0.16-0.12,0.19-0.37,0.35-0.49
			c-0.01,0.16-0.04,0.48,0,0.68c0.13-0.02,0.07-0.18,0.07-0.29C292.4,394.932,292.411,394.812,292.411,394.691z M292.061,398.932
			c0.03-0.03,0.08-0.03,0.06-0.1c-0.1-0.04-0.16,0.079-0.2,0.14c0.02,0.04,0.09-0.03,0.1,0.03c0,0.12-0.02,0.38,0.01,0.479
			C292.111,399.372,292.071,399.082,292.061,398.932z M292,400.502c0.13-0.061,0.08-0.301,0.08-0.48s0.02-0.399-0.03-0.52
			c-0.01,0-0.02,0-0.03,0C292,399.731,292.011,400.212,292,400.502z M292,398.802c0.01-0.061,0.06-0.11-0.01-0.13
			c-0.08,0.06-0.22,0.06-0.26,0.17C291.851,398.852,291.891,398.752,292,398.802z M292.21,392.582c-0.03-0.26-0.29-0.35-0.23-0.64
			c-0.04-0.07-0.1-0.05-0.15,0c0.07,0.16-0.06,0.33-0.16,0.41c-0.03-0.05,0.05-0.1-0.01-0.15c-0.1-0.01-0.06,0.12-0.1,0.16
			c0.02,0.02,0.05,0.02,0.09,0.02c0.01,0.04,0.01,0.09,0.05,0.11c0.08-0.11,0.12-0.26,0.23-0.34
			C292.041,392.271,292.061,392.492,292.21,392.582z M291.831,400.111c-0.01-0.04,0.03-0.149-0.03-0.149
			C291.821,400.012,291.771,400.111,291.831,400.111z M291.69,400.012c0-0.01,0-0.021,0-0.03c-0.02,0-0.02-0.01-0.03-0.02
			c-0.03,0.04-0.1,0.04-0.12,0.09C291.621,400.071,291.631,400.012,291.69,400.012z M291.281,400.352c0.06,0.01,0.09,0,0.11-0.04
			c-0.08-0.01-0.04-0.12-0.12-0.13C291.221,400.241,291.301,400.281,291.281,400.352z M291.131,400.481
			c0.07-0.05-0.06-0.12-0.08-0.03C291.081,400.462,291.091,400.491,291.131,400.481z M290.951,400.531
			c0.02,0.021,0.07,0.011,0.1,0.011c-0.03-0.101-0.2,0-0.25-0.061c-0.01,0.021-0.03,0.03-0.02,0.061
			c0.04,0.01,0.04-0.021,0.07-0.011c-0.02,0.011-0.02,0.051,0,0.07c0.03,0,0.06,0,0.09,0
			C290.951,400.582,290.92,400.521,290.951,400.531z M291,400.281c0.02-0.02,0.05-0.029,0.04-0.08
			C290.991,400.191,290.931,400.262,291,400.281z M290.92,399.792c0.07,0.02,0.07-0.03,0.06-0.08
			C290.92,399.712,290.911,399.752,290.92,399.792z M290.9,400.401c0-0.05,0.03-0.06,0.04-0.09c-0.06,0-0.13,0.04-0.19,0.061
			C290.801,400.411,290.821,400.382,290.9,400.401z M290.821,393.961c0.06,0.01,0.07-0.02,0.06-0.07c-0.02,0-0.03-0.01-0.04-0.02
			C290.831,393.901,290.791,393.932,290.821,393.961z M290.851,395.572c0.04-0.55,0.07-1.06,0-1.57c-0.01,0-0.02,0-0.03,0
			c0,0.2-0.16,0.23-0.26,0.33c-0.08,0.51-0.03,0.91-0.04,1.5C290.73,395.812,290.641,395.582,290.851,395.572z M290.821,395.932
			c0.06,0.02,0.09-0.1,0.02-0.1C290.821,395.852,290.791,395.901,290.821,395.932z M290.851,400.271c0.01-0.05,0-0.08-0.05-0.07
			c0.01,0.04-0.04,0.08,0,0.101C290.801,400.281,290.831,400.271,290.851,400.271z M290.551,393.921c0.07-0.06,0.21-0.11,0.17-0.22
			C290.631,393.731,290.511,393.802,290.551,393.921z M290.44,396.001c0.12-0.05,0.22-0.13,0.31-0.21
			C290.631,395.842,290.511,395.912,290.44,396.001z M290.511,393.961c-0.05-0.01-0.1,0.04-0.06,0.06
			C290.46,393.992,290.5,393.992,290.511,393.961z M290.081,400.432c0.07,0,0.13-0.01,0.14-0.08
			C290.161,400.372,290.081,400.361,290.081,400.432z M289.541,399.552c0.12-0.01,0.22-0.03,0.26-0.101
			C289.681,399.451,289.581,399.472,289.541,399.552z M289.531,399.762c0.12-0.04,0.29-0.05,0.34-0.17
			C289.75,399.592,289.581,399.651,289.531,399.762z"/>
		<path fill="#FFFFFF" d="M296.071,396.211c-0.01,0.08-0.03,0.15-0.05,0.21c-0.05-0.01-0.06,0.03-0.11,0.02
			c0-0.09,0.11-0.08,0.11-0.16c-0.01-0.01-0.02-0.02-0.04-0.03c-0.03,0.04-0.06,0.08-0.09,0.13c-0.05,0.01-0.09-0.01-0.1-0.04
			c-0.01-0.05,0.06-0.03,0.06-0.06c-0.02-0.02-0.07-0.02-0.09-0.04c-0.01-0.06,0.03-0.06,0.03-0.11c0.07,0.01,0.1,0.04,0.12,0.09
			c0.04-0.01,0.06-0.05,0.13-0.04C296.041,396.191,296.051,396.202,296.071,396.211z"/>
		<path fill="#4C0F1C" d="M296.051,395.822c0.01,0.03,0,0.05-0.01,0.07c-0.04-0.02-0.11-0.02-0.15,0c0.02-0.04,0.08-0.1,0-0.12
			c0.04-0.05,0.08-0.1,0.16-0.11c0.03,0.09-0.09,0.06-0.07,0.14C295.98,395.832,296.031,395.812,296.051,395.822z"/>
		<path fill="#FFFFFF" d="M295.861,396.492c0.02,0.01,0.04,0.03,0.05,0.05c-0.03,0.09-0.12,0.11-0.23,0.11
			C295.701,396.562,295.841,396.592,295.861,396.492z"/>
		<path d="M295.851,395.932c0.06,0.01,0.01,0.09-0.03,0.05C295.831,395.961,295.851,395.952,295.851,395.932z"/>
		<path fill="#4C0F1C" d="M295.851,394.162c-0.08,0.01-0.22-0.04-0.36-0.03c0.05,0.22-0.06,0.33-0.2,0.39
			c-0.34,0.03-0.52-0.19-0.52-0.46c0.07,0.07,0.05,0.13,0.1,0.2c0.21,0.32,0.75,0.04,0.45-0.24c0.12,0,0.24,0.08,0.36,0.04
			c-0.03-0.18-0.16-0.25-0.29-0.33c0.07-0.02,0.14-0.03,0.23-0.03C295.681,393.872,295.791,393.992,295.851,394.162z"/>
		<path fill="#FFFFFF" d="M295.851,397.262c-0.02-0.01-0.03,0-0.03,0.01c-0.04,0-0.03-0.07-0.01-0.08
			C295.851,397.182,295.851,397.222,295.851,397.262z"/>
		<path fill="#4C0F1C" d="M295.821,395.901c-0.05,0.02-0.09,0.04-0.13,0.06C295.661,395.941,295.811,395.802,295.821,395.901z"/>
		<path fill="#4C0F1C" d="M295.791,395.662c0.02,0.05-0.04,0.15-0.13,0.14c-0.05-0.05,0.04-0.1-0.06-0.13
			c0.01-0.03,0.04-0.02,0.05-0.05C295.67,395.651,295.75,395.742,295.791,395.662z"/>
		<path fill="#FFFFFF" d="M295.621,397.472C295.67,397.332,295.781,397.542,295.621,397.472L295.621,397.472z"/>
		<path fill="#FFFFFF" d="M295.491,396.452c0.02-0.06,0.11-0.12,0.19-0.09c-0.01,0.04-0.01,0.07-0.06,0.06
			c0.04,0.03,0.03,0.09-0.03,0.09C295.541,396.501,295.551,396.441,295.491,396.452z"/>
		<path fill="#4C0F1C" d="M295.141,396.032c0.1-0.11,0.31-0.19,0.48-0.18c-0.05,0.07-0.12,0.18-0.22,0.15
			c-0.01-0.07,0.07-0.05,0.08-0.1C295.321,395.901,295.291,396.072,295.141,396.032z"/>
		<path fill="#FFFFFF" d="M295.521,396.812c0.04,0,0.08,0,0.07,0.04C295.561,396.882,295.5,396.872,295.521,396.812z"/>
		<path fill="#FFFFFF" d="M295.561,397.502c0.01,0.05-0.03,0.05-0.07,0.05c-0.01-0.03,0.01-0.04,0.01-0.061
			C295.531,397.491,295.531,397.512,295.561,397.502z"/>
		<path fill="#FFFFFF" d="M295.621,397.802c-0.04,0.04-0.08,0.07-0.09,0.149c-0.11-0.02-0.17-0.05-0.27-0.06
			c0-0.08,0.14-0.01,0.17-0.06c0.02-0.061-0.09,0.01-0.07-0.051C295.411,397.771,295.571,397.762,295.621,397.802z"/>
		<path fill="#FFFFFF" d="M295.301,397.691c0-0.18,0.2-0.13,0.1,0.03C295.351,397.731,295.331,397.731,295.301,397.691z"/>
		<path fill="#FFFFFF" d="M295.23,398.342c-0.01-0.15,0.23-0.07,0.17,0.03C295.341,398.342,295.321,398.312,295.23,398.342z"/>
		<path fill="#4C0F1C" d="M295.451,396.981c-0.05,0-0.06,0.03-0.09,0.05c-0.05-0.02-0.09-0.06-0.17-0.05
			c-0.02-0.04-0.01-0.05-0.02-0.11C295.311,396.862,295.4,396.901,295.451,396.981z"/>
		<path fill="#FFFFFF" d="M295.221,398.502c-0.03-0.13,0.05-0.15,0.14-0.12C295.361,398.472,295.301,398.502,295.221,398.502z"/>
		<path fill="#4C0F1C" d="M295.331,397.102c0.01,0.08-0.05,0.1-0.1,0.11c-0.01-0.021-0.04-0.03-0.03-0.08
			C295.271,397.142,295.271,397.052,295.331,397.102z"/>
		<path fill="#4C0F1C" d="M295.321,396.702c-0.01,0.05,0.02,0.06,0,0.08c-0.07-0.01-0.13,0.02-0.16-0.04
			c-0.13,0.06-0.01,0.19-0.09,0.29c-0.07-0.029-0.07-0.12-0.17-0.12c0.06-0.06,0.07-0.16,0.06-0.29c0.06-0.06,0.15,0.02,0.24,0.02
			c0,0.02-0.14,0.02-0.14,0.08C295.131,396.722,295.201,396.691,295.321,396.702z"/>
		<path fill="#4C0F1C" d="M294.67,393.042c0.2-0.3,0.67-0.07,0.63,0.29c-0.03,0.33-0.58,0.52-0.9,0.3c0.12,0.01,0.37,0.03,0.48-0.04
			c-0.05-0.08-0.15-0.09-0.21-0.18C294.601,393.312,294.591,393.162,294.67,393.042z M294.73,393.231
			c-0.06,0.37,0.55,0.32,0.49-0.06c-0.03-0.13-0.14-0.19-0.29-0.15C294.791,393.062,294.741,393.151,294.73,393.231z"/>
		<path fill="#FFFFFF" d="M295.101,398.062c-0.03-0.1,0.08-0.12,0.14-0.08C295.21,398.021,295.17,398.052,295.101,398.062z"/>
		<path fill="#4C0F1C" d="M295.141,397.132c-0.06-0.03,0.03-0.15,0.09-0.101C295.221,397.082,295.161,397.082,295.141,397.132z"/>
		<path fill="#FFFFFF" d="M295.061,397.661c0.04-0.06,0.11-0.1,0.17-0.039C295.21,397.672,295.101,397.722,295.061,397.661z"/>
		<path fill="#FFFFFF" d="M295.221,393.171c0.06,0.38-0.55,0.43-0.49,0.06c0.01-0.08,0.06-0.17,0.2-0.21
			C295.081,392.981,295.19,393.042,295.221,393.171z"/>
		<path fill="#FFFFFF" d="M295.071,398.321c-0.01-0.069,0.08-0.08,0.12-0.05C295.19,398.321,295.121,398.321,295.071,398.321z"/>
		<path fill="#4C0F1C" d="M295.121,395.892c0.02,0.01,0.03,0.02,0.05,0.03c-0.06,0.04-0.1,0.1-0.18,0.11
			C295,395.961,295.091,395.952,295.121,395.892z"/>
		<path fill="#FFFFFF" d="M295.061,397.792c0.01-0.021,0.05-0.021,0.08-0.011c-0.02,0.051-0.03,0.07-0.04,0.13
			C295.041,397.922,295.061,397.842,295.061,397.792z"/>
		<path fill="#FFFFFF" d="M295.161,398.502c-0.02,0.05-0.11,0.01-0.15,0c0-0.04,0.01-0.061,0.02-0.08
			C295.101,398.422,295.101,398.481,295.161,398.502z"/>
		<path fill="#FFFFFF" d="M295.011,398.271c0.01,0.061-0.02,0.08-0.01,0.14c-0.05,0.03-0.12,0.03-0.16,0.08
			c0-0.06,0.07-0.119,0.13-0.149c-0.02-0.12-0.13-0.05-0.21-0.03C294.73,398.212,294.931,398.222,295.011,398.271z"/>
		<path fill="#FFFFFF" d="M294.761,398.372c0.02,0,0.05,0,0.08,0c-0.02,0.029-0.08,0.079-0.11,0.05
			C294.73,398.401,294.75,398.392,294.761,398.372z"/>
		<path fill="#4C0F1C" d="M294.111,392.592c-0.05-0.56,0.69-0.32,0.59,0.07c-0.03,0.1-0.16,0.17-0.3,0.13
			c0.14,0.55-0.57,0.48-0.64,0.12C293.73,392.722,293.841,392.562,294.111,392.592z M294.611,392.552c0.01-0.19-0.3-0.31-0.36-0.12
			c-0.04,0.13,0.05,0.21,0.1,0.28C294.541,392.722,294.611,392.642,294.611,392.552z M294.17,393.112c0.17-0.05,0.11-0.33-0.02-0.43
			C293.721,392.602,293.831,393.211,294.17,393.112z"/>
		<path fill="#FFFFFF" d="M294.25,392.432c0.06-0.19,0.37-0.07,0.36,0.12c0,0.09-0.07,0.17-0.26,0.16
			C294.301,392.642,294.21,392.562,294.25,392.432z"/>
		<path fill="#FFFFFF" d="M294.641,396.682c-0.02,0.03-0.03,0.06-0.07,0.06C294.571,396.702,294.591,396.682,294.641,396.682z"/>
		<path fill="#FFFFFF" d="M294.44,398.292c0.06,0.27,0.02,0.54,0.03,0.83C294.4,398.842,294.451,398.592,294.44,398.292z"/>
		<path fill="#FFFFFF" d="M294.44,398.172c0.05-0.021,0.02,0.06,0.01,0.069C294.42,398.212,294.431,398.201,294.44,398.172z"/>
		<path fill="#FFFFFF" d="M294.451,399.132c0.01,0.029,0.07,0.21-0.01,0.229C294.44,399.262,294.44,399.201,294.451,399.132z"/>
		<path fill="#FFFFFF" d="M294.15,392.682c0.13,0.1,0.19,0.38,0.02,0.43C293.831,393.211,293.721,392.602,294.15,392.682z"/>
		<path fill="#FFFFFF" d="M294.471,396.832c-0.11,0.16-0.3,0.25-0.41,0.41c-0.04-0.02-0.08,0.04-0.1,0
			C294.141,397.111,294.261,396.932,294.471,396.832z"/>
		<path fill="#FFFFFF" d="M294.061,397.752c0.03-0.011,0.03,0.01,0.05,0.01c-0.03,0.13-0.19,0.149-0.29,0.189
			c-0.11,0.051-0.21,0.12-0.33,0.131C293.581,397.882,293.891,397.861,294.061,397.752z"/>
		<path fill="#4C0F1C" d="M293.681,391.771c0.07,0.03,0.17,0.06,0.27,0.03c-0.13,0.26-0.32,0.47-0.48,0.71
			c0.01,0.02,0,0.07,0.01,0.11c-0.09,0-0.18-0.09-0.24-0.16c0.04,0,0.1,0.01,0.12-0.01c0.13-0.18,0.28-0.34,0.37-0.56
			C293.75,391.822,293.67,391.832,293.681,391.771z"/>
		<path fill="#4C0F1C" d="M293.931,396.191c-0.03-0.02-0.25,0.02-0.3-0.04C293.701,396.151,293.881,396.142,293.931,396.191z"/>
		<path fill="#4C0F1C" d="M293.881,399.222c-0.01,0.27,0.01,0.58-0.02,0.83c-0.05,0.01-0.09,0.09-0.14,0.06
			c0.02-0.45-0.04-0.95,0.01-1.34c0.04-0.03,0.08,0.021,0.15,0c-0.02,0.12,0.03,0.311-0.08,0.351
			C293.801,399.182,293.871,399.161,293.881,399.222z"/>
		<path fill="#4C0F1C" d="M293.521,396.251c0.05-0.02,0.16,0.07,0.13,0.13C293.581,396.362,293.531,396.332,293.521,396.251z"/>
		<path fill="#FFFFFF" d="M294.011,397.562c-0.19,0.16-0.46,0.24-0.69,0.35c-0.02,0.04,0.02,0.03,0.01,0.07
			c-0.09,0.021-0.13,0.08-0.23,0.08c-0.01-0.11,0.13-0.07,0.11-0.2C293.491,397.781,293.721,397.582,294.011,397.562z"/>
		<path fill="#4C0F1C" d="M293.331,396.191c0.03,0.03,0.08,0.08,0.06,0.12C293.331,396.312,293.301,396.231,293.331,396.191z"/>
		<path fill="#4C0F1C" d="M293.291,396.082c0.04-0.03,0.09,0.02,0.08,0.08C293.301,396.182,293.301,396.122,293.291,396.082z"/>
		<path fill="#4C0F1C" d="M293.241,396.812c0.15,0.08,0.11,0.4,0.03,0.45c-0.01,0.04,0.04,0.03,0.05,0.06
			c-0.16,0.08,0.02,0.33-0.15,0.4c-0.07-0.01-0.03-0.13-0.04-0.2c-0.15-0.01-0.06,0.17-0.09,0.26c-0.09-0.02-0.05-0.12-0.06-0.18
			c-0.04-0.33,0.03-0.69-0.02-0.95c0.02,0,0.04,0,0.07,0c0,0.06-0.05,0.12-0.02,0.16c0.12-0.14,0.1-0.42,0.18-0.6
			c0.02-0.01,0.02,0.01,0.04,0.01c-0.03,0.15-0.08,0.29-0.1,0.45c0.03,0.03,0.08-0.1,0.14-0.05c-0.13,0.15-0.22,0.34-0.2,0.64
			c-0.02,0.02-0.09,0.05-0.04,0.1C293.201,397.281,293.101,396.921,293.241,396.812z M293.061,397.502c0.05,0,0.09-0.07,0.05-0.11
			C293.061,397.392,293.021,397.462,293.061,397.502z"/>
		<path fill="#FFFFFF" d="M293.111,397.392c0.04,0.04,0,0.11-0.05,0.11C293.021,397.462,293.061,397.392,293.111,397.392z"/>
		<path fill="#FFFFFF" d="M293,398.212c0,0.01,0,0.02,0.01,0.029c-0.09,0.181-0.36,0.19-0.53,0.301
			c-0.03,0.119-0.17,0.13-0.29,0.159c0-0.09,0.09-0.079,0.15-0.119c0-0.051-0.02-0.12,0.01-0.16c0.03,0,0.07-0.021,0.07,0.029
			C292.621,398.382,292.791,398.271,293,398.212z"/>
		<path fill="#4C0F1C" d="M292.96,397.401c-0.03,0.05-0.02,0.12-0.02,0.19c-0.1,0.09-0.21,0.16-0.33,0.229
			c-0.03-0.22-0.01-0.439,0.07-0.609c-0.03-0.051-0.09-0.09-0.1-0.17c0.04-0.021,0.15-0.021,0.19,0
			C292.741,397.252,292.801,397.382,292.96,397.401z"/>
		<path fill="#4C0F1C" d="M292.741,397.852c0.02-0.05,0.14-0.14,0.19-0.07c-0.12,0.101-0.28,0.15-0.44,0.21
			C292.561,397.922,292.631,397.872,292.741,397.852z"/>
		<path fill="#4C0F1C" d="M292.781,399.481c0.1,0.24,0.02,0.66,0.05,0.97c-0.04,0.03-0.08,0.051-0.13,0.061
			c-0.04-0.43,0-0.88-0.02-1.311c0.05-0.01,0.06-0.06,0.13-0.04C292.831,399.241,292.851,399.441,292.781,399.481z"/>
		<path fill="#FFFFFF" d="M292.811,397.981c0.03,0.021-0.05,0.061-0.1,0.061C292.73,398.002,292.781,398.002,292.811,397.981z"/>
		<path fill="#4C0F1C" d="M292.851,398.802c-0.02,0.02-0.05,0.05-0.11,0.04C292.761,398.802,292.801,398.802,292.851,398.802z"/>
		<path fill="#4C0F1C" d="M292.871,398.962c-0.06,0.08-0.22,0.05-0.26,0.16c-0.06-0.021-0.12,0.069-0.13-0.021
			C292.591,399.082,292.721,398.981,292.871,398.962z"/>
		<path fill="#4C0F1C" d="M292.491,397.392c0.02,0.07-0.08,0.12-0.08,0.22C292.331,397.552,292.391,397.382,292.491,397.392z"/>
		<path fill="#FFFFFF" d="M292.381,394.362c0.06,0.07,0.03,0.21,0.03,0.33c0,0.12-0.01,0.24,0,0.35c0,0.11,0.06,0.27-0.07,0.29
			c-0.04-0.2-0.01-0.52,0-0.68c-0.16,0.12-0.19,0.37-0.35,0.49c-0.15-0.17-0.24-0.42-0.39-0.59c-0.03,0.23,0.01,0.54-0.01,0.79
			c-0.12-0.02-0.07-0.2-0.07-0.31c0-0.26,0-0.51,0.01-0.7c0.19,0.18,0.28,0.47,0.46,0.65
			C292.15,394.822,292.261,394.532,292.381,394.362z"/>
		<path fill="#4C0F1C" d="M292.391,396.981c0.04,0.061,0.01,0.18,0.02,0.26C292.351,397.212,292.381,397.042,292.391,396.981z"/>
		<path d="M292.361,396.771c0.03,0.05-0.02,0.14-0.04,0.2C292.301,396.921,292.351,396.832,292.361,396.771z"/>
		<path fill="#4C0F1C" d="M292.321,400.481c0.01,0.07-0.02,0.11-0.01,0.19c-0.05-0.011-0.06,0.02-0.09,0.01
			c-0.03-0.33,0-0.73-0.01-1.09c0.03-0.021,0.06-0.04,0.11-0.03c-0.01,0.09,0.03,0.24-0.06,0.25c0.08,0.16,0.09,0.47-0.01,0.66
			C292.261,400.521,292.281,400.481,292.321,400.481z"/>
		<path d="M292.381,398.151c-0.03,0.03-0.08,0.05-0.13,0.061C292.281,398.182,292.321,398.151,292.381,398.151z"/>
		<path fill="#FFFFFF" d="M292.281,392.421c-0.03,0-0.06-0.02-0.06,0.02c-0.05-0.05-0.03-0.09-0.06-0.16
			c0.03-0.01,0.03-0.05,0.08-0.03C292.241,392.312,292.261,392.362,292.281,392.421z"/>
		<path d="M292.241,397.262c0.04,0.02-0.01,0.08-0.02,0.1C292.181,397.332,292.23,397.281,292.241,397.262z"/>
		<path fill="#FFFFFF" d="M292.121,398.832c0.02,0.069-0.03,0.069-0.06,0.1c0.01,0.15,0.05,0.44-0.03,0.55
			c-0.03-0.1-0.01-0.359-0.01-0.479c-0.01-0.061-0.08,0.01-0.1-0.03C291.96,398.911,292.021,398.792,292.121,398.832z"/>
		<path fill="#FFFFFF" d="M292.081,400.021c0,0.18,0.05,0.42-0.08,0.48c0.01-0.29,0-0.771,0.02-1c0.01,0,0.02,0,0.03,0
			C292.101,399.622,292.081,399.842,292.081,400.021z"/>
		<path fill="#FFFFFF" d="M291.991,398.672c0.07,0.02,0.02,0.069,0.01,0.13c-0.11-0.05-0.15,0.05-0.27,0.04
			C291.771,398.731,291.911,398.731,291.991,398.672z"/>
		<path fill="#FFFFFF" d="M291.98,391.941c-0.06,0.29,0.2,0.38,0.23,0.64c-0.15-0.09-0.17-0.31-0.28-0.43
			c-0.11,0.08-0.15,0.23-0.23,0.34c-0.04-0.02-0.04-0.07-0.05-0.11c-0.04,0-0.07,0-0.09-0.02c0.04-0.04,0-0.17,0.1-0.16
			c0.06,0.05-0.02,0.1,0.01,0.15c0.1-0.08,0.23-0.25,0.16-0.41C291.881,391.892,291.94,391.872,291.98,391.941z"/>
		<path fill="#FFFFFF" d="M291.801,399.962c0.06,0,0.02,0.109,0.03,0.149C291.771,400.111,291.821,400.012,291.801,399.962z"/>
		<path fill="#FFFFFF" d="M291.69,399.981c0,0.01,0,0.021,0,0.03c-0.06,0-0.07,0.06-0.15,0.04c0.02-0.05,0.09-0.05,0.12-0.09
			C291.67,399.972,291.67,399.981,291.69,399.981z"/>
		<path fill="#FFFFFF" d="M291.591,392.592c0.08,0.09,0.01,0.25,0.01,0.39C291.561,392.852,291.561,392.671,291.591,392.592z"/>
		<path fill="#FFFFFF" d="M291.491,400.042c0.05,0.09-0.05,0.159-0.13,0.229c0.08-0.1-0.07-0.12,0-0.2
			c-0.07-0.069-0.15,0.03-0.22-0.029c0.03-0.061,0.08-0.091,0.07-0.181c0.08,0,0.21-0.12,0.26-0.01c-0.09,0.01-0.18,0.021-0.23,0.07
			C291.301,399.991,291.411,400.031,291.491,400.042z"/>
		<path fill="#FFFFFF" d="M291.391,400.312c-0.02,0.04-0.05,0.05-0.11,0.04c0.02-0.07-0.06-0.11-0.01-0.17
			C291.351,400.191,291.311,400.302,291.391,400.312z"/>
		<path fill="#FFFFFF" d="M291.051,400.451c0.02-0.09,0.15-0.02,0.08,0.03C291.091,400.491,291.081,400.462,291.051,400.451z"/>
		<path fill="#4C0F1C" d="M291.17,392.322c-0.03,0.08-0.02,0.19-0.1,0.21c-0.03-0.04-0.02-0.13-0.04-0.18
			c-0.09,0.11-0.09,0.32-0.18,0.44c-0.06-0.04-0.01-0.19-0.03-0.28c0.02-0.02,0.06-0.02,0.08-0.03c-0.01-0.04-0.02-0.07-0.02-0.12
			c0-0.04-0.06-0.02-0.1-0.03c0-0.04,0.04-0.05,0.04-0.08C290.881,392.332,291.101,392.251,291.17,392.322z"/>
		<path fill="#FFFFFF" d="M291.051,400.542c-0.03,0-0.08,0.01-0.1-0.011c-0.03-0.01,0,0.051-0.01,0.07c-0.03,0-0.06,0-0.09,0
			c-0.02-0.02-0.02-0.06,0-0.07c-0.03-0.01-0.03,0.021-0.07,0.011c-0.01-0.03,0.01-0.04,0.02-0.061
			C290.851,400.542,291.021,400.441,291.051,400.542z"/>
		<path fill="#FFFFFF" d="M291.041,400.201c0.01,0.051-0.02,0.061-0.04,0.08C290.931,400.262,290.991,400.191,291.041,400.201z"/>
		<path fill="#FFFFFF" d="M290.98,399.712c0.01,0.05,0.01,0.1-0.06,0.08C290.911,399.752,290.92,399.712,290.98,399.712z"/>
		<path fill="#FFFFFF" d="M290.94,400.312c-0.01,0.03-0.04,0.04-0.04,0.09c-0.08-0.02-0.1,0.01-0.15-0.029
			C290.811,400.352,290.881,400.312,290.94,400.312z"/>
		<path fill="#FFFFFF" d="M290.881,393.892c0.01,0.05,0,0.08-0.06,0.07c-0.03-0.03,0.01-0.06,0.02-0.09
			C290.851,393.882,290.861,393.892,290.881,393.892z"/>
		<path fill="#FFFFFF" d="M290.851,394.001c0.07,0.51,0.04,1.02,0,1.57c-0.21,0.01-0.12,0.24-0.33,0.26
			c0.01-0.59-0.04-0.99,0.04-1.5c0.1-0.1,0.26-0.13,0.26-0.33C290.831,394.001,290.841,394.001,290.851,394.001z M290.801,394.872
			c-0.07-0.15,0.08-0.32-0.06-0.39c-0.11,0.09-0.11,0.28-0.06,0.43c0.02,0,0.05,0,0.07,0
			C290.781,394.912,290.761,394.862,290.801,394.872z M290.75,395.392c0.07-0.12,0.05-0.28,0.06-0.42
			c-0.04,0.01-0.06,0.05-0.12,0.04c0.01,0.12-0.06,0.18-0.05,0.3C290.67,395.342,290.701,395.372,290.75,395.392z M290.771,394.282
			c-0.1-0.02-0.14,0.1-0.12,0.16C290.661,394.362,290.741,394.352,290.771,394.282z"/>
		<path fill="#FFFFFF" d="M290.841,395.832c0.07,0,0.04,0.12-0.02,0.1C290.791,395.901,290.821,395.852,290.841,395.832z"/>
		<path fill="#FFFFFF" d="M290.801,400.201c0.05-0.01,0.06,0.021,0.05,0.07c-0.02,0-0.05,0.01-0.05,0.03
			C290.761,400.281,290.811,400.241,290.801,400.201z"/>
		<path fill="#4C0F1C" d="M290.741,392.792c0.06-0.02,0.02,0.07,0.07,0.06c-0.11,0.05-0.04,0.28-0.1,0.38c0.01-0.07,0.02-0.1,0-0.16
			c-0.06,0.03-0.02,0.15-0.04,0.2c-0.03-0.07-0.03-0.15-0.03-0.25c0.04,0.01,0.08,0.01,0.07-0.04c-0.01-0.04-0.05,0.03-0.07-0.01
			c0.02-0.11-0.04-0.2,0-0.28c0.09,0.02,0.04,0.12,0.04,0.2C290.73,392.892,290.701,392.812,290.741,392.792z"/>
		<path fill="#4C0F1C" d="M290.741,394.481c0.14,0.07-0.01,0.24,0.06,0.39c-0.04-0.01-0.02,0.04-0.05,0.04c-0.02,0-0.05,0-0.07,0
			C290.631,394.762,290.631,394.572,290.741,394.481z"/>
		<path fill="#4C0F1C" d="M290.811,394.972c-0.01,0.14,0.01,0.3-0.06,0.42c-0.05-0.02-0.08-0.05-0.11-0.08
			c-0.01-0.12,0.06-0.18,0.05-0.3C290.75,395.021,290.771,394.981,290.811,394.972z M290.741,395.262
			c-0.01-0.05,0.02-0.05,0.01-0.09c-0.02,0-0.02-0.02-0.04-0.01C290.69,395.182,290.69,395.262,290.741,395.262z"/>
		<path fill="#4C0F1C" d="M290.781,396.682c0.04,0.08,0.02,0.33-0.01,0.42C290.721,397.021,290.71,396.742,290.781,396.682z"/>
		<path fill="#4C0F1C" d="M290.781,397.802c0.02,0.07-0.06,0.13-0.06,0.22C290.631,397.991,290.701,397.802,290.781,397.802z"/>
		<path d="M290.65,394.441c-0.02-0.06,0.02-0.18,0.12-0.16C290.741,394.352,290.661,394.362,290.65,394.441z"/>
		<path fill="#FFFFFF" d="M290.75,395.171c0.01,0.04-0.02,0.04-0.01,0.09c-0.05,0-0.05-0.08-0.03-0.1
			C290.73,395.151,290.73,395.171,290.75,395.171z"/>
		<path d="M290.71,393.302c0.05,0.01,0.02,0.09,0.03,0.14C290.701,393.421,290.71,393.352,290.71,393.302z"/>
		<path fill="#FFFFFF" d="M290.721,393.702c0.04,0.11-0.1,0.16-0.17,0.22C290.511,393.802,290.631,393.731,290.721,393.702z"/>
		<path fill="#4C0F1C" d="M290.821,397.132c0,0.12-0.13,0.189-0.23,0.17C290.631,397.201,290.741,397.172,290.821,397.132z"/>
		<path d="M290.69,400.372c0.02,0.05-0.1,0.039-0.07-0.021C290.641,400.361,290.701,400.342,290.69,400.372z"/>
		<path fill="#4C0F1C" d="M290.65,396.771c0.02-0.01,0.03,0.01,0.04,0.01c-0.03,0.14,0,0.26-0.04,0.379
			C290.581,397.111,290.591,396.822,290.65,396.771z"/>
		<path fill="#4C0F1C" d="M290.67,399.231c0.03,0.22-0.09,0.29-0.09,0.47c-0.06-0.17-0.03-0.489-0.02-0.67
			c0.05,0.011,0.05-0.029,0.09-0.02c-0.03,0.05-0.04,0.1-0.06,0.16C290.601,399.212,290.65,399.212,290.67,399.231z"/>
		<path fill="#4C0F1C" d="M290.821,396.481c-0.02,0.11-0.12,0.14-0.23,0.17C290.631,396.552,290.741,396.532,290.821,396.481z"/>
		<path d="M290.561,400.531c0.01-0.069,0.1-0.1,0.13-0.05C290.69,400.531,290.631,400.531,290.561,400.531z"/>
		<path fill="#4C0F1C" d="M290.65,399.852c0,0.05,0,0.1,0,0.14c-0.03,0.011-0.04,0.04-0.09,0.03c-0.02-0.07,0.01-0.16,0-0.229
			C290.601,399.802,290.601,399.861,290.65,399.852z"/>
		<path fill="#FFFFFF" d="M290.75,395.792c-0.09,0.08-0.19,0.16-0.31,0.21C290.511,395.912,290.631,395.842,290.75,395.792z"/>
		<path d="M290.541,400.342c0.03-0.01,0.06,0,0.05,0.04C290.571,400.411,290.521,400.392,290.541,400.342z"/>
		<path d="M290.581,400.562c0,0.03-0.01,0.061-0.04,0.05C290.511,400.592,290.541,400.562,290.581,400.562z"/>
		<path fill="#FFFFFF" d="M290.451,394.021c-0.04-0.02,0.01-0.07,0.06-0.06C290.5,393.992,290.46,393.992,290.451,394.021z"/>
		<path fill="#4C0F1C" d="M290.451,392.202c-0.08,0.03-0.16,0.06-0.25,0.09c-0.07-0.01,0.05-0.03,0.02-0.09
			c-0.05-0.11-0.13-0.18-0.22-0.26c-0.09,0.05-0.23,0.07-0.31,0.13c-0.01,0.17-0.03,0.34,0.1,0.38c-0.08,0-0.12,0.07-0.18,0.04
			c-0.01-0.28,0.04-0.58,0-0.86c-0.01-0.04-0.04-0.07-0.08-0.07c0.22-0.22,0.33,0.03,0.52,0.23
			C290.21,391.961,290.301,392.092,290.451,392.202z M289.951,391.892c-0.07-0.12-0.14-0.21-0.25-0.28
			c-0.03,0.1-0.01,0.24-0.01,0.36C289.801,391.972,289.871,391.932,289.951,391.892z"/>
		<path fill="#4C0F1C" d="M289.9,399.222c0.13,0.03,0.23,0.02,0.39,0.01c-0.12,0.18-0.52-0.04-0.68,0.101
			c0.08-0.07,0.17-0.08,0.25-0.141c0.15-0.109,0.26-0.28,0.45-0.35C290.201,399.002,290.021,399.071,289.9,399.222z"/>
		<path fill="#FFFFFF" d="M290.221,400.352c-0.01,0.07-0.07,0.08-0.14,0.08C290.081,400.361,290.161,400.372,290.221,400.352z"/>
		<path fill="#FFFFFF" d="M289.701,391.612c0.11,0.07,0.18,0.16,0.25,0.28c-0.08,0.04-0.15,0.08-0.26,0.08
			C289.69,391.852,289.67,391.711,289.701,391.612z"/>
		<path fill="#4C0F1C" d="M289.69,400.281c0.07,0,0.04,0.141,0.01,0.16C289.65,400.441,289.641,400.302,289.69,400.281z"/>
		<path fill="#4C0F1C" d="M289.69,398.512c-0.07,0.01-0.11-0.05-0.08-0.101C289.661,398.422,289.69,398.451,289.69,398.512z"/>
		<path fill="#FFFFFF" d="M289.801,399.451c-0.04,0.07-0.14,0.091-0.26,0.101C289.581,399.472,289.681,399.451,289.801,399.451z"/>
		<path fill="#FFFFFF" d="M289.871,399.592c-0.05,0.12-0.22,0.13-0.34,0.17C289.581,399.651,289.75,399.592,289.871,399.592z"/>
		<path fill="#4C0F1C" d="M289.531,398.321c-0.01,0.011-0.02,0.03-0.02,0.051c-0.04,0.01-0.03-0.03-0.05-0.03
			C289.471,398.292,289.491,398.321,289.531,398.321z"/>
		<path fill="#4C0F1C" d="M289.311,392.461c0.08,0.03,0.08,0.13,0.1,0.2c-0.22,0.08-0.36,0.24-0.59,0.32
			c0.01-0.03,0.03-0.05,0.03-0.09c-0.11-0.26-0.27-0.47-0.42-0.69c-0.03,0-0.06,0-0.1,0c0.05-0.08,0.16-0.09,0.23-0.16
			c0.07,0,0,0.06,0,0.08c0.11,0.26,0.27,0.47,0.42,0.69C289.141,392.751,289.311,392.691,289.311,392.461z"/>
		<path fill="#4C0F1C" d="M288.491,393.251c0.01,0.23-0.2,0.48-0.45,0.45c-0.24-0.03-0.35-0.32-0.57-0.42c-0.04,0-0.09,0-0.13,0
			c0.06-0.07,0.1-0.16,0.19-0.21c0,0.04-0.01,0.08,0.01,0.1c0.05,0.08,0.16,0.13,0.26,0.21c0.08,0.07,0.19,0.19,0.27,0.21
			c0.23,0.04,0.39-0.17,0.35-0.38c-0.05-0.23-0.39-0.3-0.53-0.47c-0.06-0.01-0.07,0.02-0.12,0.01c0.04-0.07,0.09-0.13,0.15-0.19
			c0.03,0,0,0.05,0.01,0.08C288.021,392.882,288.48,392.941,288.491,393.251z"/>
		<path fill="#4C0F1C" d="M288.291,398.321c0.07,0.011,0.05,0.101,0.1,0.13c-0.22,0.171-0.52,0.25-0.75,0.41
			c-0.01,0.03-0.04,0.05-0.03,0.101c-0.08-0.03-0.08-0.13-0.13-0.19c0.13-0.229,0.32-0.39,0.45-0.6c-0.21-0.05-0.5,0.05-0.73,0.069
			c-0.08-0.04-0.1-0.13-0.13-0.199c0.05-0.021,0.05,0.02,0.1,0.01c0.11-0.04,0.21-0.141,0.34-0.23c0.12-0.08,0.32-0.13,0.32-0.3
			c0.09,0.05,0.11,0.17,0.17,0.24c-0.03,0.05-0.06-0.03-0.1-0.03c-0.22,0.12-0.42,0.25-0.6,0.41c0.28,0.03,0.59-0.11,0.86-0.09
			c-0.14,0.26-0.37,0.43-0.5,0.689c0.2-0.04,0.41-0.199,0.62-0.29C288.291,398.422,288.291,398.382,288.291,398.321z"/>
		<path fill="#FFFFFF" d="M287.25,393.872c0.34-0.05,0.61,0.13,0.56,0.45c-0.06,0.46-0.81,0.32-0.86-0.06
			C286.92,394.032,287.051,393.912,287.25,393.872z"/>
		<path fill="#4C0F1C" d="M287.641,396.912c0.05,0.08,0.08,0.17,0.09,0.29c-0.04,0-0.04-0.04-0.07-0.04
			c-0.31,0.07-0.67,0.08-0.83,0.301c-0.03-0.08-0.07-0.16-0.07-0.271c0.15,0.061,0.31-0.01,0.49-0.06
			C287.44,397.071,287.601,397.062,287.641,396.912z"/>
		<path fill="#4C0F1C" d="M287.341,393.722c0.62-0.06,0.73,0.84,0.19,1.02C286.71,394.862,286.73,393.771,287.341,393.722z
			 M287.811,394.322c0.05-0.32-0.22-0.5-0.56-0.45c-0.2,0.04-0.33,0.16-0.3,0.39C287,394.642,287.75,394.782,287.811,394.322z"/>
		<path fill="#4C0F1C" d="M287.611,395.231c0.03,0.15-0.06,0.29-0.07,0.46c-0.08-0.01-0.2,0.01-0.26-0.02
			c0.12-0.1,0.32-0.12,0.26-0.4c-0.02-0.08-0.07-0.14-0.17-0.14c-0.26,0-0.21,0.54-0.56,0.47c-0.25-0.04-0.2-0.36-0.13-0.63
			c0.06,0,0.13,0,0.2,0c-0.02,0.1-0.13,0.08-0.17,0.19c-0.07,0.13-0.02,0.32,0.12,0.33c0.23,0,0.22-0.48,0.51-0.49
			C287.46,394.992,287.591,395.092,287.611,395.231z"/>
		<path fill="#4C0F1C" d="M287.4,395.961c0.22,0.05,0.21,0.37,0.21,0.64c-0.08,0-0.14,0.04-0.24,0.04c-0.01-0.08,0.15-0.11,0.17-0.2
			c0.04-0.28-0.1-0.42-0.26-0.35c-0.17,0.07-0.13,0.43-0.24,0.53c-0.27,0.23-0.5-0.18-0.44-0.51c0.06-0.03,0.12-0.06,0.21-0.06
			c0.01,0.08-0.09,0.09-0.12,0.17c-0.05,0.15,0.02,0.36,0.19,0.33C287.111,396.521,286.98,395.882,287.4,395.961z"/>
	</g>
	<g>
	</g>
</g>
</svg>
